<?xml version="1.0" encoding="UTF-8"?>
<svg id="Layer_1" data-name="Layer 1" xmlns="http://www.w3.org/2000/svg" viewBox="0 0 970.04 970.02">
  <defs>
    <style>
      .cls-1 {
        fill: #fff;
      }
    </style>
  </defs>
  <path class="cls-1" d="M45.85,863.14c.18,4.49-1-4.84,0,0h0Z"/>
  <path class="cls-1" d="M50.95,881.69c1.6,4.6-2.02-3.78,0,0h0Z"/>
  <path class="cls-1" d="M59.08,895.94c.21.25.42.49.63.74.52.78.76,1.12.81,1.22-.15-.16-1.08-1.5-1.44-1.97Z"/>
  <path class="cls-1" d="M73.02,910.09c3.25,2.85-2.64-1.65,0,0h0Z"/>
  <path class="cls-1" d="M87.01,918.53c.28.15.59.29.92.43,1.44.83,2.64,1.59-.92-.43Z"/>
  <path class="cls-1" d="M88.29,50.95c-4.53,1.56,3.82-2.06,0,0h0Z"/>
  <path class="cls-1" d="M106.81,924.14c4.98,1.01-4.41-.25,0,0h0Z"/>
  <path class="cls-1" d="M863.04,45.71c-.44-.05-.87-.08-1.3-.08,4,.01,2.88.06,1.3.08Z"/>
  <path class="cls-1" d="M881.72,50.95c-3.83-2.06,4.53,1.56,0,0h0Z"/>
  <path class="cls-1" d="M909.46,897.82c.28-.4.5-.73.71-1.01-.24.34-.47.67-.71,1.01Z"/>
  <path class="cls-1" d="M919.16,881.43s.01-.04.01-.05c1.77-2.69-1.79,5.08-.01.05Z"/>
  <path class="cls-1" d="M924.37,108.26c0-.34-.03-.68-.08-1.03.01-1.7.06-3.18.08,1.03Z"/>
  <path class="cls-1" d="M896.88,910.14c.14-.12.28-.25.43-.37-.1.09-.22.2-.43.37Z"/>
  <path class="cls-1" d="M970.01,224.44c0-35.58.08-71.17,0-106.75-.1-49.71-30.3-92.79-76.49-110.63-17.67-6.81-36.02-7.05-54.54-7.05H122.06C87.85,0,54.79,11.24,31.19,37.01,11.3,58.73.25,86.78.01,116.24c-.03,2.38,0,4.76,0,7.14v717.66c0,22.24,2.26,43.44,11.98,64.05,19.2,40.72,62.2,64.85,106.41,64.91,37.21.05,74.43,0,111.64,0h623.76c.37,0,.72-.01,1.08-.03,31.02-.56,61.35-13.16,82.81-35.79,20.61-21.72,32.06-50.48,32.3-80.4.06-8.33,0-16.66,0-25V224.44ZM924.6,853.57c-.01,1.26-.03,2.51-.06,3.77-.06,1.77-.25,3.51-.34,5.26,0,.09-.01.16-.01.24.01-.09.04-.16.05-.25.67-3.42-.3,5.37-.05.29-.59,2.99-1.11,5.97-1.89,8.92-.87,3.27-1.98,6.41-3.12,9.59,1.77-2.69-1.79,5.08-.01.05,0-.01.01-.04.01-.05,0,.01-.01.01-.01.03-.73,1.12-1.2,2.55-1.82,3.75-1.53,2.95-3.22,5.83-5.03,8.59-.69,1.05-1.43,2.06-2.14,3.07-.24.34-.47.67-.71,1.01.28-.4.5-.73.71-1.01.48-.69.71-1.03.77-1.12-.21.28-1.58,2.17-2.03,2.71-3.54,4.13-7.43,7.88-11.59,11.38,1.03-.93-3.76,2.67-4.94,3.42-2.8,1.78-5.7,3.41-8.69,4.88-.33.18-1.1.59-1.77.97.38-.16.74-.33,1.1-.52-1.7.93-2.33,1.26-2.36,1.26.06-.06.61-.38,1.24-.73-1.17.48-2.46.86-3.61,1.25-2.66.92-5.37,1.72-8.12,2.4-1.65.4-3.33.77-5.01,1.08-.21.04-.5.11-.81.2-1.63.58-2.32.81-2.47.83.15-.06.92-.35,1.72-.61-2.85.73-6.67.37-9.54.37H119.63c-1.01,0-2.03.01-3.04,0h-.38c-2.95-.03-5.87-.2-8.8-.4-.21-.01-.42-.03-.59-.04,4.98,1.01-4.41-.25,0,0-.08-.01-.15-.04-.24-.05-2.25-.45-4.49-.85-6.71-1.39-3.29-.82-6.53-1.8-9.71-2.96-.69-.25-1.49-.49-2.22-.78,1.44.83,2.64,1.59-.92-.43.28.15.59.29.92.43-.62-.37-1.27-.73-1.59-.88-2.99-1.48-5.89-3.1-8.69-4.88-1.4-.9-2.74-1.87-4.12-2.78-.2-.13-.37-.24-.5-.33,3.25,2.85-2.64-1.65,0,0-.05-.05-.1-.09-.15-.14-4.74-4.15-9.13-8.44-13.16-13.27.52.78.76,1.12.81,1.22-.15-.16-1.08-1.5-1.44-1.97.21.25.42.49.63.74-.04-.06-.08-.13-.13-.2-.92-1.37-1.88-2.72-2.77-4.12-2.09-3.29-3.8-6.74-5.61-10.19-.09-.18-.18-.34-.25-.48,1.6,4.6-2.02-3.78,0,0-.03-.08-.06-.16-.09-.25-.38-1.06-.79-2.09-1.16-3.17-1.11-3.2-2.03-6.47-2.79-9.78-.38-1.68-.66-3.37-1-5.06-.03-.1-.04-.2-.06-.29.18,4.49-1-4.84,0,0,0-.16-.01-.34-.03-.54-.14-2.94-.38-5.85-.4-8.8v-1.75c-.01-3.99,0-7.96,0-11.93V125.43c0-2.96-.03-5.93,0-8.89v-.34c.03-2.89-.39-6.85.37-9.78-.25.79-.54,1.56-.61,1.72.03-.15.25-.85.83-2.47.09-.3.16-.59.2-.81.43-2.23.92-4.47,1.51-6.66.72-2.72,1.56-5.41,2.54-8.06.08-.21.16-.49.24-.79.74-4.39.47-1.96.04-.14.28-1.37,1.51-3.14,2.13-4.36,1.4-2.71,2.94-5.35,4.59-7.9.74-1.16,1.56-2.27,2.32-3.43.24-.33.44-.61.61-.81-.4.48-.79.96-1.17,1.44,1.51-1.97,1.92-2.48,1.22-1.51.29-.35.58-.69.87-1.03,3.38-3.95,7.08-7.56,11.02-10.91.09-.1.4-.37,1.06-.9-.33.28-.64.56-.97.83.44-.32,2.13-1.64,2.66-1.99,1.36-.95,2.75-1.84,4.16-2.7,2.86-1.74,5.84-3.19,8.79-4.74.16-.09.32-.16.45-.24-4.53,1.56,3.82-2.06,0,0,.09-.04.18-.06.28-.1,1.59-.57,3.15-1.17,4.76-1.69,3.24-1.05,6.53-1.93,9.86-2.61,1.3-.26,2.64-.47,3.94-.72-5.08.25,3.71-.72.29-.05-.09.01-.16.04-.25.05.08,0,.15-.01.24-.01,2.95-.15,5.87-.38,8.82-.4,2.21-.01,4.41,0,6.62,0h727.82c.96,0,1.9-.01,2.86,0,.68,0,1.36,0,2.06.01,1.77.04,3.52.11,5.29.25.42.03,1.35.04,2.17.04-.44-.05-.87-.08-1.3-.08,4,.01,2.88.06,1.3.08,2.89.26,6.08,1.3,8.77,2.01,3.28.87,6.45,1.99,9.64,3.13.1.04.19.06.28.1-3.83-2.06,4.53,1.56,0,0,.14.08.29.15.45.24,1.48.78,2.99,1.46,4.47,2.26,2.43,1.31,4.81,2.74,7.11,4.25,1.22.81,2.38,1.67,3.58,2.51-4.1-2.85,1.4,1.16,2.32,1.98,2.06,1.82,4.04,3.73,5.93,5.73,1.14,1.2,2.25,2.42,3.32,3.68.45.54,1.82,2.43,2.03,2.71-.09-.14-.5-.74-1.48-2.13,3.04,4.35,8.49,10.76,9.86,16.27-.34-1.59-.45-2.9.19.9.08.3.16.58.24.79.58,1.58,1.11,3.18,1.6,4.79.83,2.71,1.53,5.47,2.11,8.25.26,1.25.68,2.7.83,4.05.01-1.7.06-3.18.08,1.03,0-.34-.03-.68-.08-1.03,0,.74.01,1.53.04,1.9.18,2.36.24,4.72.26,7.09v1.88c.01,11.88,0,23.78,0,35.66v605.31c0,31.5.23,63.01,0,94.5Z"/>
  <path class="cls-1" d="M45.85,863.14c.18,4.49-1-4.84,0,0h0Z"/>
  <path class="cls-1" d="M45.18,108.14c.03-.15.25-.85.83-2.47,0,.04-.03.09-.04.14-.05.18-.1.35-.16.54-.01.03-.01.05-.03.08-.25.79-.54,1.56-.61,1.72Z"/>
  <path class="cls-1" d="M50.53,89.25s-.03.06-.03.09c.74-4.39.47-1.96.04-.14-.01.03-.01.04-.01.05Z"/>
  <path class="cls-1" d="M50.95,881.69c1.6,4.6-2.02-3.78,0,0h0Z"/>
  <path class="cls-1" d="M59.71,896.68c.52.78.76,1.12.81,1.22-.15-.16-1.08-1.5-1.44-1.97.21.25.42.49.63.74Z"/>
  <path class="cls-1" d="M59.02,74.14c1.51-1.97,1.92-2.48,1.22-1.51-.01.01-.04.05-.05.08-.4.48-.79.96-1.17,1.44Z"/>
  <path class="cls-1" d="M73.2,59.79c-.33.28-.64.56-.97.83-.05.04-.08.05-.09.06.09-.1.4-.37,1.06-.9Z"/>
  <path class="cls-1" d="M73.02,910.09c3.25,2.85-2.64-1.65,0,0h0Z"/>
  <path class="cls-1" d="M87.93,918.96c1.44.83,2.64,1.59-.92-.43.28.15.59.29.92.43Z"/>
  <path class="cls-1" d="M88.29,50.95c-4.53,1.56,3.82-2.06,0,0h0Z"/>
  <path class="cls-1" d="M107.42,45.78c-.09.01-.16.04-.25.05h-.04c-5.08.25,3.71-.72.29-.05Z"/>
  <path class="cls-1" d="M106.81,924.14c4.98,1.01-4.41-.25,0,0h0Z"/>
  <path class="cls-1" d="M861.74,45.64c4,.01,2.88.06,1.3.08-.44-.05-.87-.08-1.3-.08Z"/>
  <path class="cls-1" d="M864.2,924.03c.05-.01.09-.03.14-.04-1.63.58-2.32.81-2.47.83.15-.06.92-.35,1.72-.61.03,0,.05-.01.08-.03.19-.06.37-.11.54-.16Z"/>
  <path class="cls-1" d="M881.91,919.05c.38-.16.74-.33,1.1-.52-1.7.93-2.33,1.26-2.36,1.26.06-.06.61-.38,1.24-.73h.01s0-.01.01-.01Z"/>
  <path class="cls-1" d="M881.72,50.95c-3.83-2.06,4.53,1.56,0,0h0Z"/>
  <path class="cls-1" d="M919.32,88.45c-.34-1.59-.45-2.9.19.9-.05-.29-.11-.58-.19-.87v-.03Z"/>
  <path class="cls-1" d="M919.16,881.43s.01-.04.01-.05c1.77-2.69-1.79,5.08-.01.05Z"/>
  <path class="cls-1" d="M924.37,108.26c0-.34-.03-.68-.08-1.03.01-1.7.06-3.18.08,1.03Z"/>
  <path class="cls-1" d="M924.18,862.88v-.04c.01-.09.04-.16.05-.25.67-3.42-.3,5.37-.05.29Z"/>
  <path class="cls-1" d="M623.46,502.54c.01-.18.03-.35.05-.53-.24,1.15-.42,4.57-.05.53ZM613.88,431.33c-.09-.35-.24-.72-.43-1.11.16.45.34.9.43,1.11ZM539.69,356.53c-.34-.18-.68-.33-1.01-.4.19.08.59.24,1.01.4ZM431.34,356.12c-.34.09-.71.24-1.08.42.44-.16.88-.34,1.08-.42ZM356.55,430.24c-.18.38-.33.74-.42,1.08.08-.2.25-.64.42-1.08Z"/>
  <path class="cls-1" d="M547.51,311.13c-70.91-26.34-155.59-3.58-203.7,54.79-25.03,30.37-39.9,66.59-43.06,105.87-3.03,37.63,6.51,76.64,26.11,108.84,18.82,30.9,47.07,56.9,80.15,71.81,36.4,16.41,75.99,21.19,115.24,13.53,73.17-14.27,133.76-76.65,144.92-150.53,1.46-9.69,2.5-19.36,2.61-29.16.01-.38.03-.78.03-1.17v-.37c-.52-77.65-49.71-146.66-122.29-173.62ZM623.51,502.01c-.03.18-.04.35-.05.53-.37,4.04-.19.62.05-.53ZM623.92,497.33c-.11,1.5-.26,3-.4,4.5-.3.66-.34,2.75-.42,3.24-1.31,8.14-3.25,16.16-5.8,23.99-1.12,3.47-2.42,6.87-3.72,10.28-.06.15-.11.32-.16.48,0,.01,0,.03-.01.03-.18.35-.37.68-.5.98-.97,1.99-1.89,4.02-2.9,6-3.49,6.9-7.49,13.55-11.95,19.87-.72,1.02-1.45,2.03-2.19,3.03h-.01v.03h-.01c-.18.2-1.44,1.85-2.27,2.84-2.64,3.17-5.39,6.23-8.26,9.2-2.48,2.56-5.06,5.05-7.71,7.44-1.43,1.29-2.88,2.55-4.35,3.78-.96.82-3.19,2.54-3.47,2.79l-.03.03c-5.7,4.15-11.58,8.01-17.76,11.43-3.39,1.89-6.86,3.65-10.38,5.29-.81.37-1.6.77-2.09,1.02-.01.01-.03.03-.05.03-1.56.66-3.23,1.2-4.81,1.78-7.71,2.81-15.62,5.03-23.65,6.65-1.97.39-3.94.76-5.92,1.07-.34.05-.67.1-1.01.16-1.58.08-12.11.97-12.88,1.01-8.26.3-16.37-.29-24.6-.92-.05,0-.1-.01-.15-.01-.5-.09-1.02-.15-1.53-.24-1.98-.32-3.95-.68-5.92-1.07-4.18-.83-8.33-1.84-12.41-3-3.52-1-7-2.12-10.44-3.36-1.84-.67-3.67-1.39-5.5-2.09-.03-.01-.05-.03-.08-.03-.04-.01-.09-.04-.15-.08-.01,0-.03-.01-.05-.01-.01-.01-.03-.01-.04-.03-.03,0-.05-.01-.08-.03-.08-.04-.16-.08-.26-.13-.13-.06-.26-.13-.4-.18-.01-.01-.03-.03-.04-.03-.03-.01-.05-.03-.08-.03-.48-.23-.91-.43-1.07-.5-7.04-3.27-13.84-7.03-20.32-11.26-2.69-1.74-5.27-3.61-7.86-5.49-.29-.25-1.8-1.4-2.83-2.25-1.48-1.22-2.94-2.48-4.36-3.77-5.94-5.31-11.49-11.06-16.59-17.18-.53-.63-2.07-2.66-2.42-3.08.1.15.34.48.76,1.05-.78-1.06-1.58-2.11-2.35-3.18-2.4-3.37-4.67-6.84-6.8-10.38-1.99-3.32-3.87-6.71-5.63-10.17-.88-1.74-1.74-3.48-2.56-5.25-.32-.69-.59-1.46-.96-2.14-2.75-7.45-5.37-14.86-7.24-22.62-.86-3.61-1.59-7.24-2.21-10.9-.19-1.14-.35-2.28-.53-3.41-.09-.54-.13-.79-.15-.86,0,.08.33,2.18.38,2.55-.67-2.04-.49-4.73-.66-6.89-.62-8.21-.62-16.46,0-24.67.13-1.63.32-3.25.47-4.87h0c.16-.87.28-2.45.35-2.88.68-4.23,1.54-8.43,2.55-12.59,1.89-7.71,4.65-14.99,7.29-22.45.03-.06.05-.13.06-.19.24-.47.48-.92.64-1.29.71-1.51,1.43-3.01,2.18-4.5,1.85-3.71,3.86-7.35,6-10.91,1.99-3.3,4.1-6.55,6.32-9.7.79-1.14,1.63-2.25,2.46-3.36-.13.18-.2.29-.21.33.25-.29,1.98-2.56,2.78-3.49,4.94-5.89,10.32-11.43,16.06-16.55,1.22-1.11,2.47-2.18,3.73-3.24.25-.23,1.49-1.22,2.43-2.01.1-.08.19-.14.26-.2.95-.69,2.72-2.03,3.14-2.33,1.8-1.27,3.62-2.52,5.47-3.72,6.48-4.24,13.28-8,20.32-11.26.37-.16.82-.4,1.29-.64.06-.01.13-.04.19-.06,1.84-.66,3.65-1.45,5.47-2.12,3.96-1.45,7.98-2.74,12.05-3.87,3.56-1,7.15-1.87,10.76-2.61,1.97-.4,3.94-.77,5.9-1.1.82-.14,1.63-.26,2.45-.39h.09c8.22-.63,16.33-1.22,24.6-.92,4.1.16,8.14.61,12.21.92.13.01.23.01.33.03h.05c.44.08.87.15,1.3.23,2.26.37,4.52.78,6.76,1.24,7.74,1.6,15.38,3.77,22.81,6.48,1.84.67,3.65,1.44,5.47,2.12.01,0,.03.01.04.01.24.13.47.25.68.35,3.77,1.78,7.49,3.59,11.14,5.63,6.08,3.37,11.82,7.18,17.44,11.23,0,.03,2.47,1.89,3.18,2.48,1.48,1.22,2.94,2.48,4.36,3.77,3.08,2.74,6.04,5.61,8.89,8.58,2.48,2.59,4.87,5.23,7.16,7.97.42.49,1.79,2.18,2.5,3.03.01.03.03.04.04.06.05.06.09.11.13.15.78,1.1,1.58,2.17,2.36,3.28,4.45,6.32,8.45,12.97,11.95,19.87.88,1.74,1.74,3.48,2.56,5.25.18.38.4.81.62,1.25.01.01.01.03.01.04.03.05.05.11.08.19,1.46,3.95,3.01,7.83,4.3,11.86,2.42,7.57,4.28,15.33,5.54,23.18.09.5.15,1.02.24,1.53,0,.05.01.1.01.15.14,1.73.37,3.46.5,5.2.35,4.4.5,8.79.53,13.21-.03,4.11-.15,8.22-.47,12.34ZM356.55,430.24c-.16.44-.34.88-.42,1.08.09-.34.24-.71.42-1.08ZM431.34,356.12c-.2.08-.64.25-1.08.42.38-.18.74-.33,1.08-.42ZM539.69,356.53c-.42-.16-.82-.33-1.01-.4.33.08.67.23,1.01.4ZM613.45,430.22c.19.39.34.76.43,1.11-.09-.21-.26-.66-.43-1.11Z"/>
  <path class="cls-1" d="M741.14,200.1c-.14.61-.24,1.21-.19,1.58-.5-3.42.06-2.96.19-1.58Z"/>
  <path class="cls-1" d="M741.18,208.38c-.01,4.23-1.11-4.39,0,0h0Z"/>
  <path class="cls-1" d="M743.54,191.84c-.37.3-.66.95-.9,1.73-.64.78-.39-.66.9-1.73Z"/>
  <path class="cls-1" d="M742.52,214.52c.1.38.24.77.4,1.15.1.44.16.76.16.81-.06-.09-.23-.66-.57-1.96Z"/>
  <path class="cls-1" d="M747.41,223.23c.16.18.32.33.42.44-.13-.14-.26-.29-.42-.44Z"/>
  <path class="cls-1" d="M761.94,174.74c-.16.1-1.1.59-1.77.91.04-.03.06-.05.1-.06,1.07-.56,1.55-.79,1.67-.85Z"/>
  <path class="cls-1" d="M760.27,233.05c.05.01.1.03.15.05.2.1.42.23.62.35,2.61,1.61-3.76-1.14-.77-.4Z"/>
  <path class="cls-1" d="M767.34,173.45c-1.05-.2-1.16-.58,1.97-.13-.57-.08-1.25-.01-1.97.13Z"/>
  <path class="cls-1" d="M776.36,173.63h-.04c-4.25-.98,2.88-.01.04,0Z"/>
  <path class="cls-1" d="M783.66,233.1c.06-.03.11-.06.18-.09,2.17-.48-3.81,2.02-.18.09Z"/>
  <path class="cls-1" d="M796.29,185.11c-.06-.09-.13-.19-.18-.29-1.5-2.7,3.43,3.42.18.29Z"/>
  <path class="cls-1" d="M800.76,216.06c1.53-2.78-.29,1.46,0,0h0Z"/>
  <path class="cls-1" d="M802.93,208.64c.05-.54.08-1.12.08-1.44.05.43.01.91-.08,1.44Z"/>
  <path class="cls-1" d="M848.25,202.82h0c-1.14-32.13-21.39-59.8-51.7-70.69-28.62-10.27-62.97-.76-82.38,22.54-20.69,24.82-24.66,60.57-7.81,88.66,17.02,28.37,49.95,41.81,82.04,35.51,34.39-6.75,58.52-38.62,59.85-72.77-.01-.04-.01-.06,0-.1l.04-1.63c-.01-.5-.03-1.01-.04-1.53ZM769.47,235.47c-.14-.01-.62-.11-1.69-.38-.66-.03-1.07-.05-1.07-.1,0-.08.35-.04.79.04-1.34-.33-2.69-.61-4.02-.97-1.02-.29-2.03-.72-3.07-.96.2.1.42.23.62.35,2.61,1.61-3.76-1.14-.77-.4.05.01.1.03.15.05-1.94-1.14-4.02-2.01-5.93-3.23-.57-.37-1.11-.74-1.67-1.12,2.17,2.13-.2-.1-.97-.68.32.21.63.44.95.66-.09-.09-.18-.18-.28-.28-1.53-1.49-2.99-2.98-4.44-4.52.03.03.05.04.08.05-.13-.26-1.9-2.43-2.59-3.57-.86-1.43-1.98-3.09-2.65-4.74.1.44.16.76.16.81-.06-.09-.23-.66-.57-1.96.1.38.24.77.4,1.15-.24-1.03-.67-2.8-.9-3.66-.29-1.1-.49-2.21-.77-3.32-.03-.11-.05-.21-.08-.32-.01,4.23-1.11-4.39,0,0v-.52c-.04-2.36-.05-4.68,0-7.04.01-.25,0-.5-.04-.72-.14.61-.24,1.21-.19,1.58-.5-3.42.06-2.96.19-1.58.18-.72.4-1.44.48-1.78.23-.96.5-3.14,1.02-4.76-.64.78-.39-.66.9-1.73-.37.3-.66.95-.9,1.73.14-.18.33-.48.57-.92.78-1.46,1.5-2.95,2.36-4.38.98-1.65,4.97-5.9,1.22-2.13,1.54-1.56,2.9-3.28,4.5-4.79.15-.14.32-.29.48-.42.08-.16.72-.82,1.34-1.2.05-.03.09-.05.14-.09.18-.15.35-.32.52-.48-.16.16-.33.32-.47.45,2.21-1.35,4.39-2.69,6.69-3.88-.29.13-.5.21-.52.18,0-.01.23-.09.57-.2h.01c.85-.29,2.33-.77,2.62-.86,1.24-.37,3.05-1.08,4.67-1.4-1.05-.2-1.16-.58,1.97-.13-.57-.08-1.25-.01-1.97.13.3.06.69.1,1.11.1,1.46,0,2.93-.13,4.4-.1,1.16.03,2.32.18,3.47.18-4.25-.98,2.88-.01.04,0h-.04c.56.14,5.59,1.45,7.45,2.03-.68-.32-1.61-.82-1.78-.92.11.05.59.29,1.67.85.06.04.14.08.2.1.38.11.61.2.61.23-.01.03-.14-.01-.35-.1,1.32.69,2.65,1.36,3.92,2.13.95.57,1.84,1.21,2.79,1.79,0-.01-.01-.03-.03-.04-1.68-1.92,3.49,2.14.05.05,1.54,1.78,3.53,3.48,5.22,5.15.08.08.15.14.21.21-.06-.09-.13-.19-.18-.29-1.5-2.7,3.43,3.42.18.29.63,1.08,1.44,2.09,2.08,3.17.57.95,1.11,1.92,1.61,2.89.39.74.76,1.49,1.1,2.25.06.14.13.26.18.38-.16-.4-.45-1.05-.86-1.94,1.41,1.19,1.85,6.48,2.28,8.15.09.37.19.66.29.87-.03-.71-.11-1.35-.35-1.78.3.57.5,1.02.64,1.37,0,0-.01,0,0,.01.33.93.16,1.19-.13.73-.15.98-.24,1.98-.26,3.01v.13c-.03,1.17-.1,2.35-.11,3.52-.01.87-.01,1.39,0,1.65.08-.3.13-.59.16-.87.05-.54.08-1.12.08-1.44.05.43.01.91-.08,1.44-.05.79-.13,1.46-.16.9-.4,1.74-1.16,3.66-1.55,4.91-.26.83-.4,1.34-.45,1.61,1.53-2.78-.29,1.46,0,0-.11.2-.24.44-.39.72-1.17,2.21-2.48,4.28-3.78,6.42.01,0,.03-.01.04-.03,2.35-2.04-2.67,4.39-.05.05-.79.69-1.43,1.61-2.17,2.38-.77.78-1.58,1.51-2.36,2.28-.11.11-.33.32-.58.54.33-.25.61-.47.66-.49-.06.06-.34.3-.95.82-.62.52-.9.76-.97.81.09-.1.68-.62,1.19-1.08-.45.35-1,.77-1.25.93-.93.58-1.85,1.19-2.81,1.74-1.14.66-2.32,1.24-3.48,1.85,2.17-.48-3.81,2.02-.18.09.06-.03.11-.06.18-.09-.05.01-.1.03-.16.04-2.19.52-4.3,1.35-6.52,1.83-.45.1-.82.18-1.1.25,2.36,0-2.76.67-.03,0-.33,0-.78.01-1.41.04-.21.01-4.69.01-6.8-.08.68.14,1.46.33,1.65.38ZM761.94,174.74c-.16.1-1.1.59-1.77.91.04-.03.06-.05.1-.06,1.07-.56,1.55-.79,1.67-.85Z"/>
  <path class="cls-1" d="M740.95,201.68c-.5-3.42.06-2.96.19-1.58-.14.61-.24,1.21-.19,1.58Z"/>
  <path class="cls-1" d="M741.18,208.38c-.01,4.23-1.11-4.39,0,0h0Z"/>
  <path class="cls-1" d="M743.54,191.84c-.37.3-.66.95-.9,1.73-.64.78-.39-.66.9-1.73Z"/>
  <path class="cls-1" d="M742.92,215.67c.1.44.16.76.16.81-.06-.09-.23-.66-.57-1.96.1.38.24.77.4,1.15Z"/>
  <path class="cls-1" d="M747.41,223.23c.16.18.32.33.42.44-.13-.14-.26-.29-.42-.44Z"/>
  <path class="cls-1" d="M751.85,228.07c.32.21.63.44.95.66,0,.01.01.01.03.03,2.17,2.13-.2-.1-.97-.68Z"/>
  <path class="cls-1" d="M753.29,179.63c-1.22,1.2-1.59,1.44-1.51,1.3.48-.44,1-.85,1.48-1.29.01,0,.03-.01.04-.01Z"/>
  <path class="cls-1" d="M760.27,233.05c.05.01.1.03.15.05.2.1.42.23.62.35,2.61,1.61-3.76-1.14-.77-.4Z"/>
  <path class="cls-1" d="M769.31,173.33c-.57-.08-1.25-.01-1.97.13-1.05-.2-1.16-.58,1.97-.13Z"/>
  <path class="cls-1" d="M776.06,235.13c2.36,0-2.76.67-.03,0h.03Z"/>
  <path class="cls-1" d="M776.36,173.63h-.04c-4.25-.98,2.88-.01.04,0Z"/>
  <path class="cls-1" d="M783.95,175.73c-.05-.01-.09-.04-.14-.06.03,0,.04,0,.05.01.03.03.06.04.09.05Z"/>
  <path class="cls-1" d="M783.66,233.1c.06-.03.11-.06.18-.09,2.17-.48-3.81,2.02-.18.09Z"/>
  <path class="cls-1" d="M791.46,228.43c.33-.25.61-.47.66-.49-.06.06-.34.3-.95.82-.62.52-.9.76-.97.81.09-.1.68-.62,1.19-1.08.04-.03.06-.04.08-.05Z"/>
  <path class="cls-1" d="M790.8,179.7c-1.68-1.92,3.49,2.14.05.05-.01,0-.01-.01-.03-.01,0-.01-.01-.03-.03-.04Z"/>
  <path class="cls-1" d="M796.57,223.23s0-.01.01-.03c.01,0,.03-.01.04-.03,2.35-2.04-2.67,4.39-.05.05Z"/>
  <path class="cls-1" d="M796.29,185.11c-.06-.09-.13-.19-.18-.29-1.5-2.7,3.43,3.42.18.29Z"/>
  <path class="cls-1" d="M800.76,216.06c1.53-2.78-.29,1.46,0,0h0Z"/>
  <path class="cls-1" d="M802.76,209.51c.08-.3.13-.59.16-.87-.05.79-.13,1.46-.16.9v-.03Z"/>
  <path class="cls-1" d="M803.27,200.47c.33.93.16,1.19-.13.73-.15.98-.24,1.98-.26,3.01,0-.83.14-2.17.1-3.34h0c-.03-.72-.11-1.36-.35-1.79.3.57.5,1.02.64,1.37,0,0-.01,0,0,.01Z"/>
</svg>