<?xml version="1.0" encoding="UTF-8"?>
<svg id="Layer_2" data-name="Layer 2" xmlns="http://www.w3.org/2000/svg" viewBox="0 0 907.5 1440.47">
  <defs>
    <style>
      .cls-1 {
        fill: #fff;
      }
    </style>
  </defs>
  <g>
    <path class="cls-1" d="M251.15,724.29c-.15-13.42.48-26.88,1.42-40.26,1.78-25.29,4.87-50.93,12.41-75.23,4.49-14.47,11.21-28.35,18.41-41.64,5.9-10.88,12.54-21.93,21.87-30.24,5.79-5.16,13.65-9.16,21.6-7.42,10.21,2.23,18.27,12.76,24.42,20.44,7.73,9.65,14.2,20.53,22.78,29.47,4.57,4.77,10.34,8.58,15.8,12.25,2.12,1.42,4.29,2.88,6.71,3.75,7.44,2.66,10.64-9.17,3.26-11.82,1.18.42,1.31.72.11-.06-1.42-.92-2.88-1.77-4.29-2.72-4.87-3.3-9.86-6.68-13.84-11.05-7.9-8.67-14.16-18.82-21.46-27.98-7.37-9.25-16.03-19.09-27.46-23.24-9.19-3.34-19.61-1.37-27.88,3.47-10.15,5.94-17.76,15.65-24.11,25.33-9.27,14.12-16.65,29.67-23.08,45.25-10.27,24.84-13.99,52.41-16.48,79-1.63,17.48-2.64,35.14-2.44,52.7.09,7.88,12.34,7.9,12.25,0h0Z"/>
    <path class="cls-1" d="M414.53,599.71c9.87.47,19.76.82,29.64,1.07,13.12.33,26.66,1.14,39.73-.48,14.19-1.76,25.95-8.98,36.27-18.61,13.31-12.42,25.73-25.86,40.7-36.37,11.55-8.11,26.22-15.92,39.53-11.74,9.71,3.05,18.08,12.06,24.15,20.87,10.42,15.15,17.56,32.45,23.65,49.71,8.74,24.77,16.05,50.46,20.43,76.37,7.87,46.64,6.53,97.56-10.26,142.22-5.92,15.74-14.28,30.01-27.07,41.12-16.6,14.42-37.69,23.5-58.55,29.78-39.03,11.74-80.18,11.93-120.54,14.9-39.48,2.91-80.1,4.55-118.9-4.76s-78.54-33.18-92.1-73.35c-8.72-25.82-5.75-54.48,4.55-79.4-.61,1.47.61-1.36.91-2.02.18-.41.38-.81.59-1.21,3.58-7.01-6.99-13.22-10.58-6.18-9.84,19.28-14.03,42.93-12.61,64.36,2.88,43.51,31.82,78.91,70.51,97.22,38.32,18.13,81.98,20.86,123.75,19.49,19.63-.64,39.19-2.32,58.76-3.84,20.4-1.58,40.84-1.9,61.1-4.97,24.26-3.68,48.28-10.3,70.4-21.03,18.49-8.96,35.9-21.33,47.54-38.53,10.51-15.52,16.9-33.97,21.3-52.07,5.79-23.84,8.14-48.6,7.81-73.11-.4-28.98-4.83-57.64-12.25-85.63-6.27-23.64-13.56-47.17-23.67-69.48-10.36-22.86-27.69-53.56-56.49-54-19.52-.3-37.35,13.15-51.54,25.11-7.52,6.34-14.6,13.16-21.63,20.02-6.01,5.86-11.95,12.07-19.04,16.65-5.01,3.24-10.82,4.6-16.53,6.12-.35.09-.71.13-1.06.2-.97.19,1.61-.18-.19.02-1.31.15-2.63.24-3.95.32-3.13.19-6.27.25-9.4.29-15.33.2-30.68-.33-46-.94-2.98-.12-5.95-.24-8.93-.39-7.88-.38-7.86,11.88,0,12.25h0Z"/>
    <path class="cls-1" d="M399.82,891.6c15.44-4.67,31.33-8.12,47.16-11.13,33.32-6.34,67.39-9.92,101.32-8.11,7.88.42,7.86-11.84,0-12.25-34.52-1.83-69.24,1.92-103.15,8.28-16.31,3.06-32.68,6.59-48.58,11.4-7.53,2.28-4.32,14.11,3.26,11.82h0Z"/>
    <path class="cls-1" d="M527.78,801.97c.35,9.73-5.94,17.57-13.21,23.38-10.55,8.45-23.78,13.47-36.78,16.7-28.55,7.09-63.34,7.09-89.89-7.07-8.3-4.43-17.29-11.1-19.43-20.85-1.98-9.06,3.31-17.26,9.66-23.23,21.08-19.81,55.47-24.82,83.14-23.64,15.7.67,32.06,3.62,46.11,10.96,9.16,4.78,19.55,12.51,20.39,23.74.59,7.81,12.85,7.88,12.25,0-2.24-29.75-38.12-41.94-62.94-45.45-33.64-4.76-73.93-.2-101.78,20.87-9.84,7.44-18.3,17.63-19.4,30.36-1.03,11.91,5.49,22.83,14.43,30.2,26.04,21.45,65.67,23.52,97.54,18.57,18.28-2.84,37.19-8.82,52.16-20.01,11.05-8.25,20.51-20.04,19.98-34.53-.29-7.86-12.54-7.9-12.25,0Z"/>
    <circle class="cls-1" cx="358.37" cy="738.59" r="9.19"/>
    <circle class="cls-1" cx="527.87" cy="740.63" r="9.19"/>
    <ellipse class="cls-1" cx="421.68" cy="810.58" rx="7.15" ry="9.7" transform="translate(-169.64 114.02) rotate(-12.84)"/>
    <ellipse class="cls-1" cx="462.76" cy="808.69" rx="9.7" ry="7.15" transform="translate(-369.87 1226.83) rotate(-86.89)"/>
    <path class="cls-1" d="M454,1440c-60.98,0-120.26-12.05-176.19-35.81-53.94-22.92-102.43-55.68-144.13-97.37-41.7-41.7-74.46-90.19-97.37-144.13C12.55,1106.75.5,1047.48.5,986.5V453.5c0-60.98,12.05-120.25,35.81-176.19,22.92-53.94,55.68-102.43,97.37-144.13,41.7-41.7,90.19-74.46,144.13-97.37C333.75,12.05,393.02,0,454,0s120.25,12.05,176.19,35.81c53.94,22.92,102.43,55.68,144.13,97.37,41.7,41.7,74.46,90.19,97.37,144.13,23.76,55.93,35.81,115.21,35.81,176.19v533c0,60.98-12.05,120.26-35.81,176.19-22.92,53.94-55.68,102.43-97.37,144.13-41.7,41.7-90.19,74.46-144.13,97.37-55.93,23.76-115.21,35.81-176.19,35.81ZM454,14c-59.08,0-116.52,11.67-170.71,34.7-52.28,22.21-99.28,53.97-139.7,94.39-40.42,40.42-72.18,87.42-94.39,139.7-23.02,54.19-34.7,111.63-34.7,170.71v533c0,59.09,11.67,116.52,34.7,170.71,22.21,52.28,53.97,99.28,94.39,139.7,40.42,40.42,87.42,72.18,139.7,94.39,54.19,23.02,111.63,34.7,170.71,34.7s116.52-11.67,170.71-34.7c52.28-22.21,99.28-53.97,139.7-94.39,40.42-40.42,72.18-87.42,94.39-139.7,23.02-54.19,34.7-111.62,34.7-170.71V453.5c0-59.09-11.67-116.52-34.7-170.71-22.21-52.28-53.97-99.28-94.39-139.7-40.42-40.42-87.42-72.18-139.7-94.39-54.19-23.02-111.63-34.7-170.71-34.7Z"/>
    <path class="cls-1" d="M454,1410c-56.92,0-112.26-11.25-164.46-33.42-50.38-21.4-95.68-52.01-134.65-90.98-38.96-38.96-69.57-84.26-90.98-134.65-22.18-52.2-33.42-107.53-33.42-164.46V453.5c0-56.92,11.24-112.25,33.42-164.46,21.4-50.38,52.01-95.68,90.98-134.65s84.26-69.57,134.65-90.98c52.2-22.18,107.53-33.42,164.46-33.42s112.26,11.24,164.46,33.42c50.38,21.4,95.68,52.01,134.65,90.98,38.96,38.96,69.57,84.26,90.98,134.65,22.18,52.2,33.42,107.53,33.42,164.46v533c0,56.92-11.25,112.25-33.42,164.46-21.4,50.38-52.01,95.68-90.97,134.65s-84.26,69.57-134.65,90.98c-52.2,22.18-107.53,33.42-164.46,33.42ZM454,44c-225.8,0-409.5,183.7-409.5,409.5v533c0,225.8,183.7,409.5,409.5,409.5h0c225.8,0,409.5-183.7,409.5-409.5V453.5c0-225.8-183.7-409.5-409.5-409.5Z"/>
  </g>
  <g>
    <path class="cls-1" d="M175.94,375.87c.54-.07,1.15.86,1.36,1.24.57,1.05.93,2.53.22,3.6-.59.89-1.81,1.6-2.68,2.16-1.15.74-2.4,1.21-3.63,1.79s-2.54,1.22-3.8,1.84c-5.5,2.72-11.01,5.43-16.51,8.15l-4.89,2.41c-2.01.99-1.35,3.99.6,4.57,5.84,1.74,11.67,3.47,17.51,5.21,1.12.33,2.08.71,3.09,1.35s1.84,1.25,1.73,2.5-.17,2.91-1.4,3.67c-.31.19-.7.24-1.05.34-.72.2.3.04-.22.02-.8-.02-1.42.12-2.21-.02-.73-.13-1.53-.2-2.24-.38-.78-.2-1.51-.59-2.28-.83-1.35-.41-2.71-.81-4.06-1.22-5.46-1.64-10.92-3.31-16.37-4.99-6.46-1.99-13.02-3.65-19.46-5.71-3.37-1.08-6.02-1.95-9.2-3.29-1.03-.43-2.33-1.19-2.75-2.29-.5-1.33.03-2.74.67-3.91,1.11-2.05,4.03-.98,5.87-.41,1.15.36,2.3.73,3.45,1.08,3.28,1,6.56,2,9.84,3l.94.29c2.28.7,3.65-1.81,2.82-3.67-1.72-3.87-3.86-7.49-5.85-11.22-1.79-3.37-3.58-6.76-5.25-10.2-.4-.83-.75-1.68-1.13-2.51s-.82-1.59-.93-2.53c-.17-1.46-.33-2.93.91-3.99.52-.44,1.21-.91,1.86-1.15s.79-.2,1.28.24c1.24,1.12,2.14,2.89,2.9,4.36,2.98,5.79,6.16,11.49,9.24,17.22,1.38,2.58,2.76,5.15,4.14,7.73.66,1.23,2.26,1.5,3.42.9,5.6-2.93,11.22-5.84,16.92-8.58,2.97-1.43,5.98-2.8,9.01-4.11,2.39-1.03,4.81-2.54,7.48-2.57,3.21-.04,3.22-5.04,0-5s-6.27,1.44-9.09,2.84c-2.96,1.47-6.06,2.69-9.05,4.11-5.99,2.86-11.9,5.92-17.78,9l3.42.9c-3.41-6.36-6.82-12.73-10.23-19.09-1.53-2.86-2.95-5.83-4.73-8.53-1.18-1.8-2.52-3.56-4.63-4.28s-4.18.1-6,1.25c-3.97,2.52-5.1,7.15-3.5,11.51.74,2.02,1.79,4.03,2.77,5.95,1.11,2.17,2.2,4.36,3.33,6.52,2.4,4.59,5.08,9.02,7.19,13.75l2.82-3.67-9.78-2.98c-3.79-1.15-7.67-2.85-11.69-2.05s-6.16,5.9-5.73,9.59c.5,4.27,3.91,6.34,7.6,7.74,7.23,2.74,14.65,4.75,22.08,6.92,6.71,1.96,13.36,4.11,20.06,6.11,1.85.55,3.7,1.1,5.55,1.66,1.22.37,2.34.89,3.61,1.08.66.1,1.32.24,1.98.36,1.02.18,1.89.14,2.92.07,4.1-.28,7.15-3.42,7.44-7.54.15-2.09.11-3.84-1.08-5.66-1.02-1.57-2.88-2.7-4.53-3.52-2.61-1.3-5.76-1.87-8.53-2.69l-11.05-3.29-.7-.21.6,4.57c4.8-2.37,9.59-4.74,14.39-7.1l7.95-3.92c2.43-1.2,5.04-2.15,7.27-3.68,1.33-.92,2.86-2.03,3.7-3.45,1.04-1.75,1.29-3.87.84-5.84-.4-1.73-1.2-3.54-2.58-4.71-1.68-1.42-3.29-1.94-5.49-1.64-1.34.18-2.07,1.9-1.75,3.08.4,1.44,1.73,1.93,3.08,1.75Z"/>
    <g>
      <path class="cls-1" d="M133.5,331.44c.6-5.13,2.29-10.17,5.96-13.92,3.88-3.98,9.31-5.61,14.75-5.78,11.73-.37,23.75,4.75,32.17,12.81,4.02,3.85,6.82,8.76,7.01,14.41s-1.82,11.37-5.51,15.71-8.76,7.3-14.45,8c-5.97.74-12.22-.68-17.74-2.9-11.28-4.54-23.45-14.92-22.19-28.31.13-1.35-1.24-2.5-2.5-2.5-1.46,0-2.37,1.15-2.5,2.5-.64,6.83,2.1,13.53,6.18,18.9s9.35,9.4,15.31,12.31c6.27,3.05,13.07,5.08,20.09,5.17s13.45-2.35,18.62-6.86,8.41-10.54,9.38-17.09c1.01-6.91-.6-13.48-4.82-19.05-8.09-10.67-22.08-17.01-35.22-17.99-7.4-.55-15.07,1.04-20.81,5.95-5.54,4.73-7.89,11.65-8.72,18.68-.16,1.34,1.26,2.5,2.5,2.5,1.48,0,2.34-1.15,2.5-2.5Z"/>
      <path class="cls-1" d="M179.08,328.21c-6.39-5.52-15.33-9.49-23.86-9.53-4.01-.02-8.25,1-11.03,4.09s-3.82,7.06-3.68,11.02c.3,8.81,8.87,14.84,16.05,18.32,7.61,3.68,17.36,5.86,24.47-.02,3.32-2.75,5.45-7.22,5.13-11.56-.36-4.87-3.41-9.28-7.09-12.32-1.04-.86-2.52-1.02-3.54,0-.89.89-1.05,2.67,0,3.54,2.49,2.05,4.85,4.82,5.52,8.07.56,2.74-.54,5.7-2.43,7.69-4.72,4.96-12.27,3.41-17.91,1.05-3.09-1.3-6.22-3.01-8.85-5.1s-5.2-4.61-6.08-7.85c-.74-2.72-.2-6.08,1.31-8.45s4.09-3.28,6.77-3.43c4.11-.24,8.21.81,12.01,2.32,3.46,1.38,6.84,3.27,9.66,5.71,1.02.88,2.53,1,3.54,0,.9-.9,1.03-2.65,0-3.54Z"/>
    </g>
    <g>
      <path class="cls-1" d="M232.27,286.79c1.31.89.34,3.17-.5,4.1-1.37,1.52-3.95,1.24-5.8,1.04-1.69-.18-3.37-.54-5.05-.83l-15.42-2.63c-1.49-.25-2.97-.51-4.46-.76-1.23-.21-2.09.18-2.82,1.15-1.42,1.89-2.59,3.9-4.08,5.74-1.09,1.35-2.09,2.78-3.14,4.16-.89,1.16-.06,2.69.9,3.42,3.14,2.4,6.28,4.81,9.43,7.21,1.37,1.05,2.74,2.08,4.1,3.14.04.03.08.06.12.09-.54-.42.29.25.36.3.72.61,1.46,1.18,2.17,1.8,1.35,1.17,2.59,2.72,1.76,4.6-.3.7-.93,1.36-1.53,1.81-.2.15-.42.27-.63.39-.09.05-.87.34-.46.26.34-.06-.18-.02-.23-.04-.22-.07-.45-.11-.67-.18-.97-.31-1.9-.65-2.73-1.25-.59-.43-1.16-.89-1.74-1.33l-8.79-6.72c-8.17-6.25-16.33-12.5-24.5-18.75l-7.15-5.47c-.19-.14-.38-.28-.57-.43-.12-.09.31.28-.15-.14-.75-.68-1.36-1.29-1.87-2.16-.43-.74-.57-.92-.32-1.79.05-.17.13-.39.37-.79.26-.45.57-.85.89-1.26,1.59-2.02,3.19-4.02,4.75-6.06,3.06-3.97,6.15-7.88,9.73-11.39,3.01-2.94,6.97-5.63,11.27-5.93,4.65-.33,9.37,1.22,13.08,4.01,3.12,2.35,5.87,6.07,6.12,10.08.06.99.03,2-.12,2.98-.1.61-.27,1.2-.4,1.8-.05.21-.32,1.34-.11.68s-.22.41-.28.61c-.38,1.22.45,2.82,1.75,3.08,6.39,1.24,12.77,2.63,19.19,3.72.65.11,1.3.19,1.96.29.94.14,1.88.28,2.82.49,1.02.23,1.81.52,2.77.97,1.22.57,2.69.35,3.42-.9.63-1.08.33-2.85-.9-3.42-.85-.39-1.73-.94-2.62-1.2s-1.89-.38-2.8-.56c-1.05-.2-2.13-.29-3.19-.47-.9-.15-1.8-.35-2.69-.52l-12.94-2.51-3.68-.71,1.75,3.08c.62-2,1.26-4.9,1.1-7.39-.17-2.62-.96-5.08-2.23-7.36-2.36-4.25-6.29-7.58-10.7-9.53-4.93-2.17-10.73-3.11-15.93-1.33s-9.14,5.34-12.72,9.18-6.9,8.47-10.29,12.75c-1.5,1.9-3.34,3.75-4.11,6.1-.84,2.56-.1,4.85,1.45,6.95,1.76,2.38,4.72,4.2,7.06,6,8.47,6.48,16.93,12.96,25.4,19.44l10.72,8.2c.83.63,1.65,1.27,2.48,1.9.37.28.75.55,1.17.77,1.98,1.03,4.7,2,6.89,1.19,5.24-1.93,7.95-8.27,4.7-13.07-1.55-2.3-4.17-3.99-6.37-5.67l-11.81-9.03-1.03-.79.9,3.42c.98-1.28,1.9-2.6,2.93-3.83,1.6-1.92,2.79-4.08,4.29-6.07l-2.82,1.15c4.54.77,9.07,1.55,13.61,2.32l7.47,1.27c3.28.56,6.51,1.23,9.84.66s5.64-2.71,6.73-5.86.34-6.49-2.58-8.46c-2.67-1.81-5.18,2.52-2.52,4.32Z"/>
      <path class="cls-1" d="M194.4,284.21c2.55-3.49,2.96-8.42,1.13-12.32-1.63-3.49-6-6.16-9.85-5.94s-7.18,2.75-9.66,5.63c-2.72,3.15-5.2,6.52-7.73,9.82-.88,1.15-.08,2.71.9,3.42,4.71,3.43,9.26,7.08,13.88,10.62,1.16.89,2.69.06,3.42-.9,2.64-3.45,5.27-6.89,7.91-10.34.82-1.07.17-2.8-.9-3.42-1.29-.75-2.6-.18-3.42.9-2.64,3.45-5.27,6.89-7.91,10.34l3.42-.9c-4.63-3.54-9.17-7.19-13.88-10.62l.9,3.42c1.94-2.54,3.84-5.11,5.88-7.56,1.7-2.04,3.47-4.32,6.1-5.15,2.32-.73,4.95.46,6.25,2.5,1.55,2.42.82,5.79-.77,7.97-.8,1.09-.18,2.79.9,3.42,1.27.74,2.62.2,3.42-.9Z"/>
    </g>
    <path class="cls-1" d="M209.46,236.39c3.32,3.7,6.65,7.4,9.97,11.1.93,1.03,2.58.88,3.54,0,3.58-3.3,7.07-6.71,10.71-9.96,2.27-2.02,4.48-4.41,7.09-5.95,1.07-.63,2.6-1.7,3.89-1.1.97.45,1.86,1.64,1.64,2.71-.13.66-1.34,2.09-1.99,2.9s-1.35,1.41-2.07,2.08c-.84.77-1.68,1.54-2.51,2.32-2.12,1.97-4.23,3.94-6.35,5.91s-4.29,3.99-6.43,5.99c-1.02.95-.88,2.56,0,3.54,4.16,4.61,8.32,9.21,12.48,13.82.94,1.04,2.57.87,3.54,0,4.66-4.21,9.34-8.4,13.98-12.63,1.07-.97,2.12-1.95,3.18-2.93,1.53-1.41,4.37-4.38,6.31-2.19,1.14,1.29.86,2.31.11,3.74-.88,1.68-2.33,2.97-3.69,4.26-2.79,2.65-5.51,5.36-8.35,7.95s-5.97,5.26-8.9,7.95c-.65.6-1.31,1.21-1.96,1.81-.61.56-1.18,1.29-1.91,1.7-1.05.6-2.47.25-3.41-.37-.57-.37-1.08-.94-1.62-1.38-.2-.17-.44-.31-.63-.49-.01-.01.32.28.18.12-.17-.19-.35-.38-.52-.57-.55-.6-1.03-1.25-1.57-1.85-1.29-1.42-2.6-2.82-3.9-4.23-3.68-3.99-7.22-8.11-10.9-12.1-2.52-2.74-5.05-5.47-7.57-8.21-2.11-2.29-4.2-4.6-6.25-6.95-1.25-1.42-2.16-2.51-3.26-3.84-1.18-1.43-2.23-2.58-2.59-4.46-.23-1.18.61-2.44,1.41-2.94,1.41-.87,1.61-2.73.51-3.93l-.06-.07v3.54c5.26-4.85,10.34-9.9,15.67-14.66,1.13-1.01,2.28-1.98,3.42-2.96,1.38-1.19,2.65-2.44,4.29-3.27,1.07-.54,2.33-1.28,3.41-.42.94.75,1.5,1.52,1.11,2.6-.41,1.14-1.49,2.27-2.37,3.1-.6.56-1.21,1.12-1.82,1.67-.77.71-1.54,1.41-2.3,2.12-2.32,2.15-4.63,4.31-6.94,6.46s-4.51,4.2-6.77,6.3c-1.02.95-.89,2.57,0,3.54l.19.21c2.19,2.37,5.72-1.18,3.54-3.54l-.19-.21v3.54c4.61-4.29,9.21-8.59,13.83-12.88,1-.93,2.01-1.86,3.02-2.79,2.17-2,4.82-4.64,5-7.77.21-3.67-3.24-7.61-6.94-7.79-4.29-.21-7.74,3.16-10.76,5.71-6.57,5.54-12.61,11.66-18.93,17.48-1.02.94-.89,2.57,0,3.54l.06.07.51-3.93c-1.79,1.11-3.01,2.83-3.64,4.82-.68,2.16-.08,4.46.86,6.45.87,1.85,2.4,3.26,3.65,4.86s2.64,3.08,3.98,4.59c3.25,3.67,6.6,7.25,9.93,10.86,4.23,4.59,8.34,9.29,12.55,13.9,1.37,1.5,2.75,2.98,4.13,4.48s2.46,2.9,3.98,4.13c.71.57,1.39,1.27,2.24,1.71s1.84.73,2.81.94c2.28.5,4.54-.22,6.31-1.67,1.52-1.25,2.9-2.71,4.36-4.03,1.54-1.38,3.1-2.74,4.65-4.11,3.49-3.09,6.9-6.27,10.26-9.5,2.8-2.69,6.31-5.62,7.34-9.54,1.12-4.28-2-8.95-6.39-9.5-3.7-.46-6.83,2.42-9.35,4.74-5.35,4.93-10.77,9.78-16.17,14.66l-.66.6h3.54c-4.16-4.61-8.32-9.21-12.48-13.82v3.54c4.28-3.99,8.55-7.99,12.84-11.97,1.06-.98,2.13-1.95,3.18-2.94,2.37-2.21,4.96-5.27,4.83-8.67-.15-3.75-4-7.2-7.71-7.02-4.09.2-7.43,3.26-10.33,5.84-4.7,4.18-9.25,8.51-13.87,12.78h3.54l-9.97-11.1c-2.16-2.4-5.68,1.15-3.54,3.54Z"/>
    <g>
      <path class="cls-1" d="M319.15,217.13c.6.7,1.37,1.51,1.14,2.5s-1.15,2.07-1.96,2.65c-.43.31-.86.54-1.38.62-.27.04-.63.03-.89,0-1.66-.11-.58-.14-.43-.11-1.21-.3-2.04-.75-3.12-1.35-1.57-.88-2.85-2-4.31-3.02l-3.13-2.19c-.7-.49-1.82-.44-2.52,0-7.4,4.6-14.73,9.29-22.19,13.78-1.04.63-1.32,1.7-1.15,2.82.24,1.57.47,3.15.72,4.72.17,1.11.51,2.11.55,3.26.02.74.11,1.51.12,2.23.02.83-.26,1.64-.36,2.47l.34-1.26c-.34.78-.55,1.69-1.24,2.25-.88.72-2.22,1.08-3.33,1.06-1.99-.03-2.46-2.39-2.85-3.97-.18-.74-.3-1.48-.42-2.22l-2.07-12.1c-1.88-10.96-3.76-21.92-5.64-32.88-.4-2.34-.98-4.72-1.26-7.07-.15-1.21-.4-2.41-.47-3.63-.05-.9-.16-2.24.37-3.04.57-.87,1.82-1.58,2.74-1.97.99-.43,1.6-.3,2.57.1,2.37.97,4.38,2.69,6.43,4.2,7.07,5.23,14.23,10.36,21.35,15.54s13.74,10.33,20.82,15.15c.33.23-.39-.27-.35-.27.35-.06,1.81,1.6,1.95,1.74,2.29,2.27,5.82-1.26,3.54-3.54-2.41-2.39-5.38-4.26-8.11-6.25-5-3.64-10.01-7.28-15.01-10.93-7.49-5.45-15.14-10.73-22.47-16.38-.09-.07-.84-.65-.45-.35-.53-.41-1.1-.73-1.65-1.11-1.41-1-2.73-1.8-4.33-2.47-3-1.24-5.81-.62-8.43,1.21-1.2.84-2.38,1.82-3.06,3.15s-.92,3.08-.92,4.62c0,2.36.52,4.79.97,7.1.56,2.86.99,5.74,1.49,8.61,2.11,12.33,4.23,24.65,6.34,36.98.59,3.41.88,7.19,2.37,10.35,1.34,2.84,3.81,4.62,7.03,4.39s6.24-1.48,7.84-4.34c.22-.4.43-.86.58-1.29.04-.11.22-.74,0-.11.24-.67.4-1.34.53-1.97.28-1.39.11-2.76.04-4.15-.09-1.91-.62-3.7-.9-5.57l-.54-3.56-1.15,2.82c7.46-4.49,14.8-9.19,22.19-13.78h-2.52c1.28.89,2.66,1.72,3.86,2.7.09.07.19.12.28.19-.51-.46.22.3.35.4.69.56,1.41,1.08,2.19,1.51,1.52.84,2.92,1.7,4.62,2.14.49.12.91.25,1.42.32-.85-.12.63.09.81.09,1.06.05,2.2-.08,3.19-.46,1.67-.64,3.09-1.86,4.16-3.27,1.21-1.59,2.03-3.37,1.9-5.42s-1.33-3.65-2.62-5.17c-.88-1.03-2.63-.9-3.54,0-1.02,1.02-.88,2.51,0,3.54Z"/>
      <path class="cls-1" d="M290.77,205.3c-4.59-3.1-9.17-6.23-13.75-9.35-1.91-1.3-4.13.84-3.67,2.82.53,2.28.73,4.62,1.04,6.94.34,2.53.72,5.06,1.07,7.59.29,2.12.65,4.23,1.01,6.34.27,1.59,2.41,2.28,3.67,1.49,4.76-2.96,9.52-5.91,14.29-8.87,1.7-1.06,1.51-3.22,0-4.32l-3.66-2.65c-1.09-.79-2.79-.19-3.42.9-.74,1.26-.2,2.63.9,3.42l3.66,2.65v-4.32c-4.76,2.96-9.52,5.91-14.29,8.87l3.67,1.49c-.36-2.11-.72-4.22-1.01-6.34-.32-2.28-.66-4.55-.97-6.84-.34-2.57-.56-5.17-1.14-7.7l-3.67,2.82c4.58,3.13,9.15,6.25,13.75,9.35,1.12.76,2.77.21,3.42-.9.72-1.23.23-2.66-.9-3.42Z"/>
    </g>
    <path class="cls-1" d="M370.82,195.5c.57,1.9,1.53,4.32-.43,5.73-.96.68-2.22.8-3.36.75-1.34-.06-2.27-.64-3.4-1.32-5.11-3.08-9.8-6.76-14.59-10.32-3.96-2.94-7.99-5.8-11.98-8.69s-7.51-6.15-11.49-8.94c-1.74-1.22-4.41.82-3.67,2.82,3.26,8.86,6.51,17.73,9.77,26.59l2.16,5.88c.45,1.23,1.08,2.57,1.29,3.85.35,2.15-.96,4.02-3.22,4.31s-3.81-1.88-4.55-3.68c-.91-2.21-1.59-4.57-2.37-6.82-1.47-4.23-3.04-8.43-4.59-12.63-2.99-8.12-6.18-16.2-8.96-24.4-.44-1.3-.88-2.61-1.31-3.91s-1.02-2.71-1.25-4.11c-.14-.85-.19-2.02.12-2.81.38-.96,1.47-1.59,2.36-1.97,2.09-.89,4.21.24,5.95,1.49,1.24.9,2.48,1.8,3.72,2.7,2.51,1.82,4.96,3.74,7.44,5.6,8.24,6.21,16.48,12.41,24.72,18.62l.56.42c1.71,1.28,4.41-.86,3.67-2.82-4.1-10.89-8.61-21.64-12.26-32.7-.48-1.44-.96-2.84-.73-4.39.18-1.23,1.38-2.15,2.49-2.57,1.53-.58,2.7-.3,3.57,1.06.93,1.45,1.5,2.96,2.11,4.56,2.86,7.59,5.73,15.17,8.62,22.74,1.62,4.24,3.24,8.49,4.87,12.73.8,2.09,1.6,4.17,2.41,6.25s1.72,3.93,2.36,5.97c.95,3.06,5.78,1.76,4.82-1.33-.61-1.97-1.53-3.82-2.27-5.74s-1.55-4.02-2.32-6.03c-1.6-4.16-3.19-8.32-4.78-12.49-3.15-8.25-6.27-16.51-9.38-24.77-1.42-3.77-3.53-7.96-8.07-8.23-3.9-.24-8.59,2.62-9.27,6.67s1.04,7.83,2.36,11.55,2.77,7.77,4.31,11.59c2.21,5.45,4.28,10.95,6.35,16.46l3.67-2.82c-7.84-5.9-15.68-11.81-23.52-17.71-3.05-2.29-6.06-4.64-9.14-6.88s-6-4.74-9.79-5.19c-2.73-.33-5.61.83-7.6,2.72-2.23,2.11-2.69,5.08-2.26,8s1.71,5.87,2.66,8.69,2.01,5.79,3.14,8.63c1.73,4.35,3.25,8.78,4.86,13.17s3.24,8.57,4.74,12.89c.78,2.25,1.52,4.51,2.35,6.74s1.53,4.51,3.11,6.43c1.78,2.18,4.62,3.59,7.47,3.29s5.99-2.23,7.21-4.99c1.12-2.56.73-5.26-.22-7.81-.36-.98-.72-1.96-1.08-2.94-3.72-10.13-7.44-20.25-11.16-30.38l-.3-.81-3.67,2.82c3.95,2.76,7.49,6.04,11.39,8.87l7.33,5.31c2.3,1.67,4.6,3.34,6.88,5.04,2.65,1.97,5.26,3.99,7.98,5.86,1.27.87,2.56,1.71,3.88,2.51s2.71,1.73,4.28,2.08c3.3.73,7.32.16,9.69-2.45,1.21-1.33,2.03-3.07,2.12-4.88s-.47-3.56-.96-5.2c-.92-3.08-5.75-1.77-4.82,1.33Z"/>
    <g>
      <path class="cls-1" d="M434.4,133.03c5.86,4.48,8.82,13.03,6.05,20.01-1.28,3.22-3.7,5.19-6.69,6.76-3.58,1.89-7.38,2.96-11.32,3.81-2.07.45-4.15.87-6.25,1.17-1.84.26-3.91.29-5.69.82-.97.28-1.95,1.32-1.84,2.41.32,3.14.64,6.27.95,9.41.34,3.35.89,6.75,1.02,10.12.03.62-.08,1.27-.13,1.89-.07.77-.04,1.73-.46,2.4-.79,1.25-2.72,1.3-4.04,1.28-.51,0-1.26-.02-1.66-.29-.58-.38-1.01-1.57-1.24-2.18s-.35-1.24-.43-1.87c-.24-1.94-.39-3.9-.59-5.85-.88-8.65-1.75-17.3-2.63-25.95-.67-6.59-1.33-13.18-2-19.77-.14-1.36-.09-2.72.17-4.07s1.12-1.54,2.34-1.76c1.7-.3,3.42-.52,5.13-.77,2.04-.31,4.08-.62,6.15-.73,1.9-.11,3.82-.06,5.73-.11,2.21-.07,4.38-.03,6.58.08.91.04,1.81.08,2.71.19,1.06.14,1.98.47,3.01.69,1.88.41,3.47,1.35,5.13,2.31,2.79,1.62,5.31-2.7,2.52-4.32-3.98-2.32-8.11-3.69-12.74-3.86-4.3-.16-8.65-.22-12.95.01-2.36.13-4.7.5-7.03.84s-3.69.47-5.75.87c-1.86.37-3.67,1.37-4.74,2.97s-1.29,3.92-1.35,5.83.31,4,.51,5.95l1.23,12.18c.96,9.43,1.91,18.87,2.87,28.3.23,2.29.45,4.59.7,6.88.28,2.69,1.11,5.74,3.14,7.67,3.04,2.88,9.51,2.19,12.4-.57,1.7-1.62,2.03-3.66,2.25-5.89.09-.92.21-1.84.13-2.76-.13-1.67-.34-3.34-.51-5.01l-1.34-13.25-.09-.87-1.84,2.41c.72-.21,1.47-.21,2.21-.31,1.11-.14,2.21-.33,3.31-.48,2.08-.29,4.15-.7,6.21-1.14,4.68-1.01,9.11-2.41,13.34-4.69,3.79-2.05,6.6-5.02,8.22-9.03,1.74-4.3,1.77-9.18.46-13.61-1.49-5.06-4.49-9.26-8.65-12.45-1.07-.82-2.8-.17-3.42.9-.75,1.29-.18,2.6.9,3.42Z"/>
      <path class="cls-1" d="M434.07,147.04c-1.02-12.44-16.93-11.07-25.81-10.17-1.2.12-2.69,1.05-2.5,2.5.8,6.03,1.22,12.1,1.84,18.15.12,1.22,1.05,2.67,2.5,2.5,3.39-.4,6.81-.69,10.17-1.31,6.3-1.15,13.61-4.3,13.81-11.67.09-3.22-4.91-3.22-5,0-.14,5.3-7.81,6.54-11.82,7.13-2.37.35-4.77.57-7.15.85l2.5,2.5c-.62-6.05-1.04-12.11-1.84-18.15l-2.5,2.5c1.96-.2,3.93-.26,5.91-.38,2.16-.13,4.3-.34,6.46-.11,3.43.36,8.11,1.54,8.45,5.65.11,1.35,1.07,2.5,2.5,2.5,1.27,0,2.61-1.15,2.5-2.5Z"/>
    </g>
    <g>
      <path class="cls-1" d="M474.91,129.97c5.17-1.42,10.62-1.86,15.68.28s8.53,6.63,10.72,11.55c4.8,10.76,4.43,24.2-.05,34.99-2.07,4.98-5.53,9.08-10.45,11.38-5.29,2.47-11.49,2.53-16.98.72s-9.67-5.3-12.43-10.08c-3-5.2-4.07-11.51-4.1-17.44-.03-6.67,1.1-13.44,4.3-19.36,2.9-5.37,7.32-10.25,13.31-12.04,3.08-.92,1.77-5.75-1.33-4.82-13.33,3.99-20.07,18.55-21.09,31.44s2.68,28.5,15.42,35.18c6.19,3.25,13.38,4.2,20.19,2.59,6.41-1.52,11.75-5.37,15.28-10.91s5.37-12.58,6.03-19.25c.68-6.86.04-13.87-2.05-20.44s-6.15-13.3-12.49-16.93c-6.56-3.75-14.19-3.63-21.29-1.68-3.1.85-1.78,5.68,1.33,4.82Z"/>
      <path class="cls-1" d="M495.41,170.6c1.36-4.01,1.91-8.33,1.93-12.55s-.56-8.89-2.23-12.93-4.1-7.22-8.17-8.69-8.55-.61-12.19,1.27c-4,2.06-6.32,6.08-7.85,10.14s-2.15,8.55-2.3,12.89c-.29,8.25,2.02,17.91,10.35,21.45,4.11,1.74,9.08,1.66,12.91-.78s6.24-6.62,7.56-10.8c.97-3.08-3.86-4.39-4.82-1.33-.87,2.75-2.44,5.73-4.8,7.51-2.12,1.59-4.98,1.99-7.52,1.3-6.81-1.85-8.59-9.34-8.7-15.54-.06-3.52.32-7.15,1.24-10.56.86-3.19,2.18-6.61,4.74-8.84,2.14-1.86,5.7-2.81,8.5-2.32,3.12.55,5,2.86,6.23,5.64,1.59,3.6,2.07,7.68,2.05,11.58s-.52,7.6-1.75,11.22c-1.03,3.05,3.79,4.37,4.82,1.33Z"/>
    </g>
    <g>
      <path class="cls-1" d="M553.72,204.39c-.18.84-.36,1.15-1.17,1.39-.84.25-1.89.32-2.72.07-2.01-.6-2.75-3.2-3.26-4.99s-.83-3.58-1.22-5.37l-3.36-15.36c-.32-1.47-.64-2.94-.97-4.42-.18-.83-.94-1.53-1.75-1.75-2.34-.63-4.72-.93-7.04-1.67-1.6-.5-3.23-.87-4.85-1.31-1.3-.36-2.72.44-3.08,1.75-1.06,3.85-2.12,7.7-3.19,11.56-.45,1.63-.89,3.26-1.35,4.89-.34,1.24-.74,2.47-1.14,3.69-.48,1.45-1.3,2.97-2.99,3.19-1.46.19-3.81-.67-3.95-2.28-.08-.93-.15-1.92.07-2.83.18-.74.4-1.46.6-2.19l3-10.88c2.73-9.9,5.46-19.81,8.19-29.71l2.35-8.52c.42-1.52.87-3.27,2.1-4.34-.07.06.36-.15.18-.07.31-.14.69-.17,1.03-.18.84-.03,1.68.28,2.51.52,2.48.74,4.96,1.46,7.45,2.15,4.92,1.37,9.93,2.73,14.56,4.94,3.93,1.88,7.52,4.6,9.35,8.63,3.37,7.42,1.32,19.04-6.75,22.62-1.64.73-3.68,1.02-5.15,1.14-1.7.14-2.74,1.48-2.41,3.16,1.25,6.39,2.35,12.82,3.74,19.18.14.64.31,1.28.47,1.92.22.93.45,1.85.6,2.79.16,1,.09,1.9.04,2.91-.16,3.22,4.84,3.21,5,0,.05-.95.2-1.95.03-2.9s-.35-1.87-.53-2.81c-.21-1.05-.53-2.08-.76-3.13-.2-.89-.35-1.8-.53-2.69-.84-4.31-1.68-8.62-2.52-12.94-.24-1.23-.48-2.45-.72-3.68l-2.41,3.16c4.74-.39,9.23-1.83,12.57-5.47,3.52-3.83,5.39-8.77,5.77-13.93s-.8-10.79-3.93-14.96-8.16-6.98-13.11-8.96-10.51-3.39-15.81-4.92c-2.39-.69-4.94-1.8-7.46-1.77-1.16.02-2.31.27-3.36.78-1.11.54-1.74,1.39-2.48,2.34-1.93,2.51-2.55,6.03-3.38,9.05-2.83,10.26-5.66,20.53-8.49,30.79l-3.65,13.22c-.29,1.04-.58,2.07-.86,3.11-.65,2.43-.73,5.9.73,8.05,1.55,2.27,4.82,3.66,7.5,3.65s4.98-1.36,6.55-3.41c1.68-2.2,2.29-5.31,3.02-7.96,1.32-4.8,2.65-9.59,3.97-14.39l.34-1.25-3.08,1.75c1.61.45,3.25.81,4.85,1.31,2.32.73,4.7,1.04,7.04,1.67l-1.75-1.75c.97,4.42,1.93,8.83,2.9,13.25l1.66,7.59c.66,3.02,1.2,6.11,2.84,8.8,1.74,2.85,4.45,4.44,7.84,4.32s6.37-1.83,7.1-5.27c.67-3.14-4.15-4.48-4.82-1.33Z"/>
      <path class="cls-1" d="M541.56,168.55c4.24,1.06,9.18-.16,12.15-3.49,2.57-2.89,3.42-7.64,1.88-11.19-1.52-3.52-4.98-5.65-8.45-6.88-3.98-1.41-8.08-2.45-12.15-3.57-1.28-.35-2.75.43-3.08,1.75-1.42,5.65-3.1,11.23-4.64,16.85-.36,1.3.44,2.72,1.75,3.08,4.18,1.15,8.36,2.31,12.55,3.46,3.11.86,4.43-3.97,1.33-4.82-4.18-1.15-8.36-2.31-12.55-3.46l1.75,3.08c1.55-5.62,3.22-11.2,4.64-16.85l-3.08,1.75c3.33.92,6.68,1.77,9.96,2.83,2.48.8,5.09,1.63,6.77,3.75,1.4,1.76,1.19,4.49,0,6.36-1.49,2.36-4.95,3.19-7.51,2.54-3.12-.78-4.45,4.04-1.33,4.82Z"/>
    </g>
    <path class="cls-1" d="M600.43,224.04c0,1.8-3.42,2.22-4.66,1.41-.86-.56-1.4-1.71-1.85-2.62-.63-1.27-.94-2.57-1.36-3.91s-.88-2.75-1.33-4.12l-5.77-17.46c-.58-1.76-1.16-3.52-1.74-5.28-.61-1.85-3.61-2.69-4.57-.6-1.44,3.16-2.89,6.32-4.33,9.48-1.33,2.92-2.48,6.04-4.07,8.84-.47.83-1.26,1.86-2.04,2.43s-1.42.43-2.3.22c-1-.23-1.74-.41-2.48-1.18-.69-.71-.57-1.61-.74-2.55v1.33c.25-.97.15-1.88.47-2.82.36-1.05.62-2.05,1.15-3.01.45-.83.83-1.71,1.22-2.56.82-1.79,1.64-3.57,2.46-5.36,1.86-4.01,3.74-8.01,5.61-12.01,1.6-3.44,3.19-6.88,4.7-10.36,1.94-4.47,3.8-9.13,6.24-13.36,1.02-1.76,1.86-3.96,3.28-5.43,1.55-1.6,3.33-1.4,5.11-.2.6.4,1.17.76,1.23,1.52.08,1.05-.22,2.08-.58,3.06-.4,1.07-.95,2.09-1.44,3.12-1.83,3.86-3.61,7.75-5.42,11.62-.88,1.88.58,4.31,2.82,3.67,4.07-1.16,7.95-2.78,11.92-4.23,3.59-1.31,7.19-2.61,10.83-3.78.88-.28,1.77-.51,2.64-.77s1.68-.62,2.59-.65c1.48-.04,2.96-.03,3.99,1.2.62.73,1.62,2.54.75,3.38-1.12,1.09-3.11,1.76-4.56,2.26-.45.16-.89.33-1.33.51.3-.12.11-.05-.07.02-.43.16-.87.31-1.31.47-.16.06-.33.12-.49.18-1.16.43-2.33.86-3.49,1.29l-11.65,4.29c-2.74,1.01-5.49,2.02-8.23,3.03-1.2.44-2.23,1.72-1.75,3.08,2.14,6.03,4.27,12.08,6.22,18.18,1,3.14,1.92,6.31,2.81,9.49.75,2.67,1.88,5.34,1.52,8.17-.17,1.34,1.27,2.5,2.5,2.5,1.49,0,2.33-1.15,2.5-2.5.39-3.02-.64-6.1-1.54-8.95-1-3.17-1.82-6.41-2.82-9.58-1.98-6.26-4.17-12.45-6.36-18.63l-1.75,3.08c6.77-2.49,13.55-4.98,20.32-7.48,3.11-1.14,6.32-2.15,9.31-3.56,1.88-.89,3.76-1.89,4.83-3.76,1.17-2.04.71-4.32-.24-6.33s-2.21-3.6-4.26-4.55-4.48-.94-6.6-.57-4.12,1.15-6.07,1.82c-2.31.8-4.62,1.57-6.92,2.39-4.88,1.73-9.64,3.78-14.62,5.2l2.82,3.67c1.44-3.09,2.87-6.18,4.31-9.27,1.65-3.56,3.77-7.04,3.81-11.06.05-4.27-4.52-7.13-8.35-7.49-4.27-.41-7.09,2.77-8.96,6.17-3.72,6.78-6.74,13.85-9.92,20.9-2.87,6.37-5.93,12.66-8.85,19.01-.81,1.75-1.61,3.51-2.42,5.26-.5,1.08-1.17,2.07-1.57,3.2-.62,1.72-1.07,3.37-1.2,5.19-.04.62-.07,1.45.07,2.32s.43,1.84.94,2.62c1.07,1.65,2.99,2.96,4.88,3.46,2.09.55,3.94.77,5.98-.07,1.92-.79,3.3-2.55,4.47-4.2.58-.82.96-1.81,1.38-2.73l2.27-4.96,4.79-10.48.3-.66-4.57-.6c1.69,5.12,3.38,10.24,5.07,15.35l2.78,8.41c.88,2.67,1.53,5.43,2.75,7.97.74,1.53,1.72,3.25,3.13,4.24,1.61,1.14,3.48,1.62,5.44,1.42,3.69-.39,7.37-2.67,7.37-6.76,0-3.22-5.01-3.22-5,0Z"/>
    <g>
      <path class="cls-1" d="M670.96,241.61c1.38,4.57.93,8.95-1.23,13.2-1.88,3.7-4.69,7.26-8.67,8.81-4.28,1.66-8.64.67-12.6-1.33-4.18-2.11-7.97-4.79-11.63-7.69-1.99-1.58-4-3.16-5.89-4.86-.85-.76-1.66-1.55-2.44-2.38-.63-.67-1.73-1.54-1.93-2.47-.15-.74.3-1.52.6-2.17.21-.45.35-.86.59-1.29-.11.2-.24.31-.17.21.12-.16.25-.3.37-.46l5.38-6.55c6.34-7.72,12.68-15.45,19.02-23.17l7.41-9.03c.59-.72,1.18-1.44,1.77-2.16.09-.1.17-.21.26-.31,1.38-1.63,2.72-2.37,4.84-1.65s3.91,2.3,5.6,3.66c1.92,1.55,3.9,3.05,5.77,4.67,3.59,3.12,6.99,6.39,9.39,10.53,1.13,1.94,1.69,3.73,1.82,5.96s-.22,4.53-1.07,6.66c-1.45,3.63-4.42,6.64-8.09,8.04-2.18.83-4.42.92-6.71.62-1.34-.18-2.5,1.27-2.5,2.5,0,1.5,1.15,2.32,2.5,2.5,10.75,1.41,19.93-7.32,20.83-17.76.22-2.55.05-5.49-.95-7.87s-2.21-4.53-3.75-6.56c-3.27-4.31-7.45-7.79-11.65-11.16s-8.78-8.03-14.56-6.93c-2.29.44-4,2-5.43,3.74l-6.11,7.44c-6.91,8.42-13.83,16.85-20.74,25.27l-6.44,7.84c-1.19,1.45-2.07,3.06-2.64,4.87-.94,3,.15,5.32,2.12,7.56,1.79,2.04,3.81,3.81,5.89,5.54,4.18,3.45,8.42,6.87,13.1,9.62,4.44,2.6,9.33,4.78,14.59,4.36,10.53-.85,18.47-11.22,19.14-21.38.17-2.6-.26-5.27-1.01-7.75-.93-3.07-5.75-1.76-4.82,1.33Z"/>
      <path class="cls-1" d="M643.28,252.02c2.33,1.67,4.82,3.5,7.55,4.46,2.52.89,5.1.28,7.33-1.09,4.74-2.92,7.61-8.82,6.29-14.32-.66-2.73-2.12-4.97-4-7.02s-4.03-4.03-6.38-5.43c-1.27-.76-2.76-1.2-4.22-.72s-2.42,1.61-3.29,2.79c-1.56,2.1-3.45,3.9-5.13,5.88-2.06,2.44-4.64,4.76-3.89,8.26.66,3.09,3.37,5.36,5.75,7.19,1.07.82,2.8.16,3.42-.9.75-1.29.18-2.59-.9-3.42-1.16-.89-3.05-2.34-3.37-3.87-.12-.55.05-.78.41-1.21.66-.79,1.32-1.57,1.99-2.36,1.33-1.58,2.81-3.02,4.14-4.6.67-.79,1.25-1.66,1.91-2.46,0,0,.63-.7.66-.63-.06-.16-.56.23-.53.08,0-.03.75.41.7.38,1.63,1.02,3.11,2.39,4.45,3.75s2.55,2.7,3.15,4.47c1.15,3.41-.11,7.09-2.94,9.31-1.4,1.1-2.77,1.7-4.34,1.04-2.2-.91-4.29-2.53-6.22-3.9-1.1-.78-2.78-.19-3.42.9-.73,1.26-.21,2.63.9,3.42Z"/>
      <path class="cls-1" d="M676.71,214.05c-1.77-1.55-3.5-3.23-5.44-4.58-.96-.67-2.07-1.2-3.25-1.25-1.47-.07-2.75.61-3.83,1.53-.84.72-1.46,1.62-2.16,2.45-.93,1.1-1.87,2.19-2.8,3.29-1.76,2.08-3.52,4.24-2.61,7.15.8,2.52,2.81,4.31,4.87,5.83,1.9,1.41,3.98,2.71,6.19,3.6,2.07.83,4.49,1.16,6.65.45,2.46-.8,4.48-2.57,5.99-4.63s2.12-4.84,1.15-7.33-2.74-4.68-4.75-6.51c-1-.91-2.55-.99-3.54,0-.92.92-1,2.62,0,3.54,1.22,1.11,2.36,2.29,3.17,3.75.33.59.5.86.63,1.6-.05-.31,0,.57-.02.68.06-.41-.21.63-.12.37-.53,1.41-1.9,2.68-3.19,3.41-1.1.62-2.13.63-3.38.28-1.55-.43-2.96-1.34-4.3-2.2-1.42-.91-3.02-1.93-4.04-3.3-.3-.41-.57-.99-.56-1.24.02-.3.67-1.04,1.03-1.47,1.36-1.62,2.74-3.21,4.07-4.85.24-.29.48-.57.74-.84.13-.14.27-.28.42-.4-.23.2.12-.05.18-.12.04-.04.38-.14.04-.07-.22.05-.25-.15.05.08s.67.39.98.62c1.51,1.11,2.89,2.47,4.3,3.71,1.02.89,2.54,1,3.54,0,.91-.91,1.02-2.64,0-3.54Z"/>
    </g>
    <path class="cls-1" d="M708.84,247.08c-3.79,3.22-7.58,6.44-11.37,9.65-1.08.92-.83,2.59,0,3.54,3.2,3.68,6.51,7.26,9.65,10.99,1.96,2.33,4.26,4.6,5.73,7.27.6,1.09,1.61,2.66.92,3.92-.51.92-1.71,1.82-2.79,1.5-.66-.19-2.04-1.45-2.82-2.12s-1.38-1.39-2.02-2.13c-.75-.86-1.5-1.72-2.25-2.58-1.91-2.17-3.82-4.34-5.73-6.51s-3.87-4.4-5.81-6.6c-.94-1.07-2.56-.83-3.54,0-4.72,4.03-9.44,8.06-14.17,12.08-1.08.92-.82,2.58,0,3.54,4.08,4.78,8.13,9.57,12.23,14.33.94,1.09,1.89,2.17,2.84,3.26.82.94,1.47,1.87,2.15,2.91.85,1.31.99,2.4-.25,3.44-2.8,2.33-6.17-1.98-7.88-3.89-2.56-2.86-5.2-5.66-7.71-8.57s-5.08-6.12-7.69-9.12c-.58-.67-1.17-1.34-1.75-2.01-.54-.62-1.26-1.22-1.63-1.96-.52-1.05-.13-2.49.54-3.39,1.2-1.62,2.77-2.75,4.28-4.04s2.89-2.52,4.34-3.78c4.09-3.57,8.31-6.99,12.41-10.55,2.81-2.44,5.61-4.89,8.42-7.33,2.35-2.05,4.72-4.07,7.12-6.05,1.47-1.22,2.55-2.07,3.93-3.15s2.67-2.15,4.55-2.43c1.13-.17,2.3.62,2.86,1.57.86,1.46,2.73,1.56,3.93.51l.07-.06h-3.54c4.7,5.4,9.6,10.61,14.21,16.08,1.1,1.31,1.93,2.36,2.87,3.51,1.15,1.41,2.36,2.73,3.13,4.39.53,1.14,1.15,2.35.24,3.41-.8.93-1.56,1.41-2.65.97s-2.22-1.6-3.01-2.49c-.55-.62-1.08-1.24-1.62-1.86-.7-.8-1.4-1.61-2.1-2.41-2.1-2.39-4.2-4.78-6.3-7.16s-4.02-4.57-6.03-6.85c-.93-1.06-2.57-.84-3.54,0l-.21.19c-1.02.89-.91,2.63,0,3.54,1.01,1.01,2.52.89,3.54,0l.21-.19h-3.54c4.15,4.72,8.31,9.43,12.45,14.15.9,1.02,1.79,2.05,2.68,3.08,1.95,2.24,4.54,4.99,7.69,5.22,3.55.26,7.58-2.95,7.9-6.57.39-4.37-2.89-7.87-5.38-11.03-5.33-6.78-11.35-13-17.01-19.5-.93-1.07-2.58-.84-3.54,0l-.07.06,3.93.51c-1.07-1.82-2.78-3.06-4.75-3.73-2.14-.73-4.46-.16-6.47.73-1.86.83-3.35,2.29-4.96,3.51s-3.14,2.57-4.69,3.87c-3.76,3.15-7.44,6.39-11.13,9.61-4.71,4.1-9.52,8.07-14.24,12.15-1.54,1.33-3.06,2.67-4.59,4s-2.93,2.42-4.24,3.87c-1.39,1.54-2.29,3-2.77,4.99-.54,2.26.14,4.56,1.56,6.34,2.52,3.15,5.29,6.13,7.88,9.23,2.99,3.58,6.08,7.08,9.21,10.53,2.62,2.89,5.44,6.45,9.35,7.58,4.23,1.22,9.01-1.84,9.62-6.21.51-3.7-2.27-6.87-4.53-9.46-4.78-5.49-9.47-11.04-14.19-16.57l-.58-.68v3.54c4.72-4.03,9.44-8.06,14.17-12.08h-3.54c3.87,4.39,7.75,8.77,11.6,13.18.95,1.09,1.89,2.18,2.84,3.27,2.15,2.44,5.14,5.08,8.55,5.02,3.76-.06,7.26-3.89,7.16-7.58-.11-4.09-3.11-7.51-5.6-10.47-4.05-4.82-8.25-9.48-12.38-14.23v3.54c3.79-3.22,7.58-6.44,11.37-9.65,1.03-.87.9-2.64,0-3.54-1.02-1.02-2.5-.88-3.54,0Z"/>
    <path class="cls-1" d="M718.8,344.26c-1.11,1.28-2.88,1.96-4.36.92-1.67-1.17-2.75-3.05-3.84-4.72-1.18-1.83-2.4-3.5-3.64-5.49-1.33-2.14-2.65-4.29-3.96-6.45s-2.4-4.15-3.75-6.13-2.7-3.97-3.28-6.28c-.51-2.03.13-3.17,1.62-4.31,2-1.53,4.15-2.79,6.32-4.06,6.91-4.05,13.77-8.18,20.59-12.37,5.04-3.09,10.07-6.19,15.19-9.14.84-.48,1.68-.93,2.53-1.39,1.05-.56,2.02-1.27,3.17-1.62,1.78-.54,3.52-.45,4.55,1.25.42.69.95,1.46.93,2.3-.02.97-.84,1.67-1.54,2.25-1.28,1.07-2.71,1.72-4.12,2.59-5.85,3.6-11.76,7.1-17.64,10.64-7.04,4.24-14.15,8.38-21.12,12.73-.13.08-.26.16-.39.24-1.15.69-1.6,2.25-.9,3.42,3.53,5.87,7.01,11.77,10.6,17.61.61,1,1.26,1.99,1.83,3.02.65,1.19,2.19,3.79,1.22,5-.85,1.05-1.03,2.51,0,3.54.88.88,2.68,1.06,3.54,0,4.18-5.2-.55-11.2-3.35-15.84-2.35-3.89-4.68-7.79-7.02-11.69-.83-1.38-1.66-2.77-2.49-4.15l-.9,3.42c6.74-4.06,13.49-8.13,20.23-12.19s13.04-7.8,19.52-11.78c.75-.46,1.59-.74,2.31-1.21,1.05-.68,2.15-1.61,3.02-2.51,2.06-2.13,2.81-5.13,1.63-7.88-.91-2.11-2.17-4.11-4.3-5.16-2.57-1.27-5.45-1.05-8.06.03-2.27.94-4.44,2.33-6.58,3.56s-4.17,2.43-6.24,3.68c-1.95,1.18-3.89,2.38-5.84,3.58-7.52,4.62-15.06,9.19-22.67,13.66-2.33,1.37-4.63,2.73-6.78,4.37-1.92,1.47-3.52,3.09-3.94,5.59-.93,5.52,3.33,10.12,5.88,14.54s5.29,9.14,8.24,13.45c2.67,3.89,5.58,9.28,10.91,9.48,2.24.09,4.95-1.24,6.42-2.94.88-1.02,1-2.53,0-3.54-.9-.9-2.65-1.02-3.54,0Z"/>
    <path class="cls-1" d="M737.75,389.56c-.36.29-1.66.78-2.23.8-1.07.02-1.86-.72-2.48-1.51-.77-.97-1.29-2.07-1.81-3.18-.48-1.03-1.15-2.44-1.54-3.14-.56-.99-.92-2.18-1.35-3.23-.6-1.44-1.19-2.88-1.78-4.33-1.05-2.59-2.07-5.19-3.09-7.79s-2.51-5.21-3.14-8.05c-.4-1.8-.42-3.81,1.24-4.84,3.65-2.26,7.98-3.56,11.96-5.12,8.06-3.16,16.09-6.37,24.11-9.64,2.41-.98,4.83-1.95,7.26-2.88,2.76-1.06,5.57-2.27,8.42-3.06,2.3-.64,4.52-.26,5.37,2.15.38,1.1.73,2.05-.12,3.02s-2.35,1.64-3.46,2.13l1.26-.34c-2.25.26-4.48,1.44-6.6,2.28l-9.43,3.75c-8.04,3.2-16.08,6.4-24.12,9.61-1.92.77-3.85,1.53-5.77,2.3-1.15.46-2.29,1.71-1.75,3.08,2.55,6.44,5.07,12.91,7.68,19.33.47,1.14.98,2.28,1.36,3.46.53,1.62,1.44,3.94.02,5.21-2.4,2.15,1.14,5.68,3.54,3.54,4.69-4.2.88-11.06-.99-15.76-1.68-4.23-3.36-8.47-5.04-12.7-.58-1.47-1.16-2.93-1.74-4.4l-1.75,3.08c7.35-2.93,14.71-5.86,22.06-8.79s14.08-5.56,21.09-8.42c1.06-.43,2.2-.63,3.21-1.14,1.16-.59,2.32-1.3,3.33-2.12,2.18-1.76,3.06-4.57,2.39-7.26-.62-2.45-1.75-4.58-3.89-5.99s-5.05-1.49-7.54-.93c-2.36.53-4.71,1.59-6.97,2.45s-4.64,1.78-6.95,2.7c-2.05.83-4.1,1.67-6.15,2.5-8.32,3.39-16.65,6.75-25.04,9.95-2.51.96-4.94,1.98-7.32,3.21-2.15,1.11-3.92,2.78-4.6,5.19-1.46,5.2,1.9,10.3,3.66,14.95,1.8,4.77,4,9.91,5.85,14.34.49,1.17,1.12,2.3,1.64,3.46s1.05,2.32,1.76,3.37c1.6,2.36,3.58,4.18,6.51,4.51,2.22.25,4.79-.79,6.48-2.19,1.04-.86.89-2.64,0-3.54-1.03-1.03-2.49-.86-3.54,0Z"/>
    <path class="cls-1" d="M802.79,415.08c-.06.03-.99-.1-1.19-.11-.61-.04-1.2-.06-1.8-.17-1.31-.25-2.52-.86-3.8-1.24-.93-.28-1.8-.68-2.7-1.02-1.84-.7-3.7-1.32-5.55-1.98l-8.96-3.2c-1.79-.64-3.6-1.45-5.44-1.94-.34-.09.51-.07.49.21,0-.03-.55-.24-.57-.25l-2.05-.89c-.96-.41-1.85-.66-2.88-.41-1.99.48-3.95,1.06-5.93,1.59-5.58,1.5-11.15,3-16.73,4.49-.45.12-.91.29-1.37.37.85-.14-.61,0-.82.04-.43.08-.74.09-1.17.08-1.13-.03-2.04.17-2.94-.72.17.16.14.13-.08-.22-.13-.2-.26-.45-.36-.67-.16-.39-.26-.84-.32-1.26-.15-.97-.19-1.82.47-2.55.77-.85,1.75-1.17,2.76-1.44,5.03-1.35,10.06-2.7,15.1-4.05l7.73-2.08c.59-.16,1.19-.29,1.78-.48,1.07-.34,1.65-1.13,2.38-1.93,3.01-3.34,5.81-6.86,8.69-10.32l5.29-6.37c1.14-1.37,2.4-2.64,3.52-4.02.89-1.1,1.83-2.13,2.89-3.07.78-.68,1.72-1.35,2.74-.8.73.39,1.68,1.32,2,2.07.46,1.06.16,2.14-.26,3.15-1,2.4-2.8,4.43-4.41,6.44-1.84,2.3-3.66,4.61-5.55,6.87s-3.58,4.36-5.41,6.35c-1.25,1.36-.77,3.68,1.1,4.18,1.51.4,2.21.72,3.75,1.25s3.03,1.06,4.54,1.61c2.61.94,5.44,2.02,7.89,2.95s5.23,1.9,7.26,3.84c.72.68,1.58,1.61,1.4,2.7s-.57,2.31-1.48,3.02c-1.07.82-1.64,2.15-.9,3.42.61,1.05,2.34,1.73,3.42.9,1.69-1.3,2.76-2.6,3.36-4.67.53-1.83.86-3.53.18-5.39-1.3-3.54-4.9-5.8-8.21-7.16s-6.46-2.55-9.73-3.75-6.71-2.62-10.14-3.54l1.1,4.18c2.77-3,5.35-6.21,7.91-9.38s5.41-6.23,7.43-9.71c1.05-1.81,2.09-4.04,1.99-6.19s-.91-3.94-2.41-5.47-3.19-2.79-5.47-2.87-4.33,1.27-5.95,2.8c-2.53,2.38-4.77,5.17-7,7.85l-8.43,10.15c-1.89,2.28-3.79,4.51-5.78,6.71l1.1-.64c-8.29,2.23-16.57,4.45-24.86,6.68-3.89,1.04-7.2,4.08-6.83,8.38.23,2.71,1.07,5.41,3.44,6.99,2.03,1.35,4.61,1.59,6.97,1.2,3.97-.67,8.14-1.95,12.15-3.02,4.63-1.24,9.26-2.49,13.88-3.73l-1.93-.25c7.81,3.38,15.99,5.79,23.94,8.83,1.42.54,2.87,1,4.28,1.55,2.72,1.07,6.24,1.66,8.98.47,1.24-.54,1.52-2.35.9-3.42-.75-1.28-2.18-1.44-3.42-.9Z"/>
  </g>
  <g>
    <g>
      <path class="cls-1" d="M319.49,1046.72c5.71,5.35,8.53,14.52,5.05,21.86-1.6,3.37-4.11,5.61-7.53,7.05-4.09,1.73-8.35,2.63-12.75,3.15-2.37.28-4.75.51-7.13.61-2.25.09-4.65-.07-6.86.35-1.07.2-1.84,1.38-1.84,2.41,0,7.03.22,14.1,0,21.13,0,.05,0,.18,0-.04.03-.38-.07.33-.06.32-.06.29-.1.59-.16.88-.17.92-.26,2.08-.69,2.91-.82,1.59-3.01,1.5-4.52,1.39-.67-.04-1.58-.12-2.14-.53-.6-.44-.84-1.47-1.06-2.14-.31-.95-.41-1.81-.41-2.8-.01-1.99,0-3.98,0-5.97v-49.8c0-1.18.15-2.27.45-3.43.18-.7.2-1.45.74-1.95.44-.4,1.08-.57,1.67-.64,1.95-.25,4-.21,5.96-.3,2.32-.11,4.65-.23,6.97-.14,2.14.08,4.27.36,6.41.51,2.26.16,4.47.44,6.71.76,1.1.16,2.15.37,3.23.61s2.04.71,3.13,1.06c1.99.64,3.66,1.93,5.33,3.14,1.09.8,2.79.19,3.42-.9.74-1.26.2-2.62-.9-3.42-1.94-1.41-3.85-2.71-6.13-3.51-1.03-.36-1.99-.85-3.06-1.1-1.34-.3-2.66-.55-4.01-.76-2.5-.38-4.98-.69-7.5-.88-2.27-.17-4.55-.46-6.83-.53-2.41-.08-4.82.05-7.23.17-2.12.1-4.3.09-6.4.39s-4.34,1.43-5.41,3.4-1.52,4.54-1.56,6.72c-.11,6.33,0,12.66,0,18.99v30.27c0,2.41-.01,4.82,0,7.23.01,2.93.77,6.63,3.05,8.67,1.76,1.57,4.36,1.94,6.63,1.92,2.46-.02,4.95-.61,6.69-2.46s2.02-4.11,2.43-6.43c.13-.73.23-1.41.23-2.15v-20.6l-1.84,2.41c.35-.06,1.82,0,2.58-.04,1.16-.05,2.31-.1,3.47-.15,2.43-.11,4.87-.37,7.29-.67,5.08-.63,9.85-1.69,14.57-3.73,9.05-3.91,12.77-13.73,11.03-23.07-.97-5.24-3.63-10.08-7.51-13.72-2.35-2.2-5.89,1.33-3.54,3.54Z"/>
      <path class="cls-1" d="M317.61,1061.86c.13-6.25-4.67-10.09-10.24-11.74-2.77-.82-5.52-1.09-8.39-1.22s-5.34-.31-8.06-.31c-1.32,0-2.54,1.15-2.5,2.5.2,6.56,0,13.11,0,19.67,0,1.34,1.15,2.52,2.5,2.5,9.34-.15,25.12.87,26.68-11.41.17-1.34-1.27-2.5-2.5-2.5-1.49,0-2.33,1.15-2.5,2.5-.3,2.35-2.35,3.85-4.42,4.68-2.89,1.17-6.07,1.47-9.15,1.59-2.7.11-5.41.1-8.12.14l2.5,2.5c0-6.56.2-13.11,0-19.67l-2.5,2.5c2.22,0,4.44.15,6.66.25s4.45.12,6.66.63c3.93.91,8.46,2.68,8.36,7.38-.07,3.22,4.93,3.22,5,0Z"/>
    </g>
    <g>
      <path class="cls-1" d="M355.64,1043.37c5.72-2.1,11.7-3.06,17.59-1.02,5.53,1.91,9.55,6.41,12.29,11.42,6.13,11.25,6.96,25.62,3.1,37.74-1.8,5.66-5.24,10.5-10.48,13.39s-11.95,3.71-17.95,2.27-11.23-4.87-14.65-9.96c-3.58-5.3-5.37-11.88-5.92-18.2-.62-7.16-.07-14.54,2.77-21.21,2.57-6.03,6.98-11.96,13.25-14.42,1.26-.49,2.13-1.68,1.75-3.08-.33-1.2-1.81-2.24-3.08-1.75-13.87,5.43-19.97,21.38-19.92,35.33s5.17,30.22,19.3,36.33c13.37,5.78,30.22,1.77,37.3-11.57,3.38-6.38,4.75-13.77,4.89-20.94s-1.11-15-3.93-21.94-7.61-13.81-14.71-17.14c-7.37-3.46-15.45-2.81-22.93-.07-1.27.46-2.13,1.7-1.75,3.08.34,1.22,1.8,2.21,3.08,1.75Z"/>
      <path class="cls-1" d="M381.36,1085.48c2.16-8.7,1.53-18.92-2.35-27.05-1.86-3.91-4.81-7.41-9.06-8.73s-9.17-.24-12.97,2c-8.21,4.84-9.53,16.48-9.22,25.07.33,9.02,3.42,19.18,12.69,22.57,4.63,1.69,10.1,1,14.02-2.02,3.65-2.82,5.9-7.42,6.89-11.84.7-3.13-4.12-4.47-4.82-1.33s-2.04,6.32-4.34,8.56c-2.09,2.03-5.16,2.89-8.03,2.45-7.76-1.18-10.62-9.36-11.26-16.2-.36-3.86-.31-7.94.44-11.75.69-3.48,1.8-7.26,4.39-9.83,2.3-2.28,6.16-3.6,9.39-3.2s5.39,2.74,6.9,5.45c1.98,3.57,2.94,7.75,3.3,11.8.38,4.25.25,8.57-.78,12.72-.78,3.12,4.05,4.46,4.82,1.33Z"/>
    </g>
    <g>
      <path class="cls-1" d="M452.07,1106.54c.06,1.05-.13,1.52-1.06,2.03-1.09.6-2.28.95-3.51.69-2.12-.43-3.57-3.12-4.59-4.81-.92-1.53-1.68-3.18-2.51-4.76l-7.85-14.93c-.75-1.43-1.5-2.86-2.25-4.29-.4-.76-1.31-1.24-2.16-1.24-2.74.02-5.43.35-8.18.27-1.68-.05-3.36.03-5.04.03-1.35,0-2.5,1.15-2.5,2.5v12.91c0,1.83,0,3.66,0,5.48,0,1.45-.06,2.92-.14,4.36-.11,1.87-.83,3.83-2.85,4.33-.98.24-2.04.12-2.99-.19s-1.23-.61-1.54-1.52-.67-1.87-.68-2.85c-.01-.84,0-1.68,0-2.51v-54.84c0-.23,0-.45,0-.68,0-.44,0-.88.05-1.32.09-.96.3-2.37.9-3.16.95-1.26,3.19-.97,4.62-.94,2.8.06,5.6.09,8.4.09,5.39,0,10.88.02,16.21.99,4.76.87,9.38,2.78,12.44,6.65,5.45,6.91,6.53,19.33-.79,25.4-1.51,1.25-3.39,2.09-5.12,2.73-1.58.58-2.26,2.14-1.49,3.67,3.12,6.28,6.13,12.62,9.37,18.84.31.59.65,1.16.97,1.74.49.89.98,1.78,1.42,2.69.52,1.08.74,2.12,1,3.29.7,3.14,5.52,1.81,4.82-1.33-.24-1.06-.38-2.15-.86-3.13s-.92-1.98-1.44-2.93-1.05-1.81-1.53-2.73-.93-1.87-1.39-2.8l-6.31-12.68-1.73-3.48-1.49,3.67c4.62-1.69,8.76-4.32,11.18-8.79,2.79-5.15,3.34-11.15,2.11-16.83-1.13-5.19-3.84-10.42-8.06-13.76-4.7-3.73-10.69-5.03-16.52-5.68s-11.86-.48-17.79-.56c-2.6-.03-5.49-.45-8.03.3-1.2.35-2.31.96-3.24,1.8-1.06.95-1.53,2.29-2.02,3.6-1.09,2.9-.66,6.82-.66,9.9v48.93c0,1.18,0,2.36,0,3.55.01,2.68.87,6.25,2.99,8.05s5.57,2.28,8.21,1.73,4.93-2.57,6.04-5.1c1.26-2.86.98-6.41.98-9.5v-17.39l-2.5,2.5c1.68,0,3.36-.08,5.04-.03,2.75.08,5.44-.25,8.18-.27l-2.16-1.24c2.24,4.26,4.48,8.52,6.73,12.79l3.87,7.35c1.43,2.72,2.74,5.54,4.85,7.81,1.17,1.26,2.57,2.49,4.24,3.01s3.36.46,5.07.06c3.62-.84,6.57-3.57,6.34-7.47-.19-3.2-5.19-3.22-5,0Z"/>
      <path class="cls-1" d="M428.95,1072.56c4.52-.09,9.07-2.61,11.27-6.64,1.9-3.48,1.67-8.57-.65-11.82s-6.62-4.81-10.61-5.14c-4.66-.39-9.37-.26-14.04-.26-1.33,0-2.53,1.15-2.5,2.5.15,6.28,0,12.57,0,18.85,0,1.35,1.15,2.5,2.5,2.5h14.04c3.22,0,3.22-5,0-5h-14.04l2.5,2.5c0-6.28.15-12.57,0-18.85l-2.5,2.5c3.86,0,7.73-.08,11.59.11,2.81.14,5.79.33,8.07,2.18,1.85,1.5,2.44,4.69,1.53,6.96-1.1,2.76-4.29,4.55-7.16,4.61-3.21.06-3.22,5.06,0,5Z"/>
    </g>
    <path class="cls-1" d="M510.31,1104.93c.44.94-.59,1.99-1.25,2.5-.92.71-1.92,1.38-3.15,1.11-1.1-.24-2.26-1.19-3.13-1.91-1.2-.99-2.15-2.17-3.2-3.3s-2.09-2.23-3.14-3.34c-4.57-4.78-9.13-9.56-13.7-14.34-1.35-1.42-2.71-2.84-4.06-4.25-1.49-1.56-4.3-.38-4.27,1.77.1,6.55.2,13.1.29,19.66.02,1.12,0,2.15-.26,3.26-.32,1.36-.66,2.84-2.17,3.26-1.35.37-3.18.71-4.36-.13-.26-.19-.45-.47-.63-.73-.13-.19-.54-1.02-.29-.39-.36-.9-.67-1.69-.8-2.64-.1-.77-.25-1.55-.31-2.33-.06-.72.09-1.44.1-2.17,0-1.59-.03-3.18-.05-4.77-.08-6.2-.12-12.41-.15-18.61-.04-7.12-.43-14.22-.41-21.34,0-3.85.18-7.08.41-10.78.09-1.5.36-3.35,1.67-4.29s3.45-.97,4.93-.4c1.18.46,1.49,1.91,1.68,3.09.16,1.01.15,2.04.15,3.06,0,1.23,0,2.46,0,3.69.03,3.67.06,7.35.09,11.02v1.04c.03,2.26,2.68,3.17,4.28,1.77,3.47-3.06,6.55-6.49,9.79-9.78,2.95-2.99,5.91-6.03,9.01-8.87.77-.71,1.59-1.36,2.34-2.09.63-.62,1.24-1.15,2.07-1.5,1.56-.66,2.97-1.3,4.57-.26,1.1.71,2.62,1.73,1.95,3.16-.75,1.62-2.25,3.1-3.5,4.34-5.01,4.94-9.86,10.08-14.79,15.11-2.19,2.24-4.39,4.48-6.58,6.72-.94.96-.97,2.57,0,3.54,4.88,4.88,9.75,9.78,14.46,14.82,2.44,2.61,4.8,5.29,7.16,7.98,1.8,2.06,4.13,4.06,4.99,6.74.98,3.05,5.81,1.75,4.82-1.33-1.05-3.25-3.42-5.93-5.74-8.36s-4.64-5.28-7.03-7.86c-4.91-5.29-10.01-10.42-15.12-15.53v3.54c5.42-5.54,10.84-11.07,16.27-16.61,2.34-2.39,4.89-4.71,7-7.29,1.47-1.8,2.96-3.6,3.22-5.99.29-2.58-1.16-4.49-3.02-6.05s-3.86-2.54-6.3-2.48c-2.1.06-4.48,1.08-6.19,2.28-1.93,1.35-3.7,3.17-5.37,4.82-1.84,1.82-3.71,3.61-5.54,5.44-4.01,4-7.75,8.26-12,12l4.27,1.77c-.03-3.61-.06-7.21-.09-10.82-.03-3.94.45-8.18-1.17-11.86-.92-2.1-2.42-3.59-4.71-4.16s-4.49-.61-6.64.15c-4.72,1.65-5.87,6.42-6.01,10.92-.11,3.9-.35,7.79-.31,11.71.05,4.49.28,8.98.35,13.46.13,7.33.08,14.67.17,22,.03,2.03.06,4.07.08,6.1.01,1.16-.17,2.08-.07,3.26.18,2.06.53,4.06,1.27,5.97.65,1.69,1.87,3.46,3.55,4.28,2.15,1.06,4.39,1.23,6.7.7s3.99-1.31,5.36-3.23c1.12-1.56,1.62-3.84,1.86-5.73.38-3.01,0-6.24-.04-9.26l-.18-12.23v-.78c-1.43.59-2.86,1.18-4.28,1.77,3.94,4.12,7.87,8.24,11.81,12.36l6.64,6.95c1.88,1.96,3.57,4.21,5.66,5.92,1.53,1.25,3.27,2.67,5.22,3.19s3.97.14,5.76-.72c1.56-.75,3.22-2.13,4.07-3.64,1.22-2.16,1.35-4.36.32-6.6-.57-1.23-2.34-1.53-3.42-.9-1.26.74-1.46,2.19-.9,3.42Z"/>
    <path class="cls-1" d="M532.71,1050.8c-.07,5.36-.14,10.72-.21,16.09-.02,1.35,1.16,2.5,2.5,2.5,5.24,0,10.48-.15,15.73-.07,1.54.03,3.08.05,4.62.07,1.81.03,3.66-.02,5.43.36,1.32.29,3.16.53,3.97,1.77.56.85.57,2.61-.03,3.43-.82,1.11-2.71,1.1-4.18,1.35-.95.16-1.9.17-2.86.17-1.34,0-2.68,0-4.03,0-3.04,0-6.08.03-9.12.05-3.24.02-6.49.03-9.73.05-1.36,0-2.49,1.14-2.5,2.5-.07,6.69-.14,13.39-.2,20.08-.01,1.36,1.16,2.49,2.5,2.5,6.76.07,13.53.16,20.29.2,1.53,0,3.07,0,4.6,0s2.86.11,4.33.32,2.67.92,2.68,2.53c0,1.76-.69,2.71-2.32,3.28-2.13.75-4.21.83-6.45.86-4.18.06-8.36.22-12.54.2-4.22-.02-8.44-.2-12.66-.2-1.81,0-3.79.24-5.58.02-1.5-.19-2.46-1.55-2.86-2.89-.21-.68-.19-1.44-.29-2.15-.04-.28-.07-.56-.11-.84-.08-.56,0,.34,0,.04,0-.28,0-.55,0-.83,0-.9.1-1.79.1-2.68.01-2.1,0-4.2,0-6.3,0-5.85.21-11.69.21-17.53,0-3.98,0-7.97,0-11.95,0-3.42.04-6.83.13-10.25.04-1.75.12-3.48.22-5.22.12-2.03.11-3.7,1.16-5.51.38-.66.72-.93,1.42-1.24.32-.14.68-.26,1.03-.3.25-.03.54-.02.79,0,.06,0,.58.08.18,0,1.57.3,3.16-.69,3.16-2.41v-.1l-2.5,2.5c7.62,0,15.24-.29,22.86-.17,1.73.03,3.44.1,5.17.16,2.05.07,4.06,0,6.04.58,1.42.42,2.92.79,3.09,2.49.13,1.32-.04,2.31-1.24,2.93-1.33.7-3.3.69-4.79.69h-2.21c-1.07,0-2.15,0-3.22,0-3.44.02-6.88.03-10.32.05-3.25.02-6.5.03-9.75.05-1.35,0-2.5,1.14-2.5,2.5v.31c0,3.22,5,3.22,5,0v-.31l-2.5,2.5c6.75-.03,13.5-.08,20.25-.1,4.43-.02,9.6.6,13.46-1.91,3.56-2.31,3.87-8.86.76-11.66-3.43-3.09-8.25-2.92-12.55-3.15-9.17-.48-18.38.04-27.56.04-1.35,0-2.5,1.15-2.5,2.5v.1l3.16-2.41c-2.3-.44-4.66-.02-6.65,1.24s-3.16,3.56-3.78,5.75-.55,4.59-.63,6.79c-.07,1.98-.1,3.96-.14,5.93-.1,5.23-.07,10.46-.07,15.69,0,6.74-.17,13.47-.21,20.21-.02,4.36-.33,8.86.18,13.18.25,2.13.82,3.88,2.11,5.62,1.42,1.91,3.59,2.93,5.95,3.07,2.08.12,4.2-.04,6.29-.02s4.37.09,6.55.13c5.05.1,10.08.02,15.13-.03,4.21-.05,9.34.21,13-2.24,3.93-2.63,4.81-8.79,1.41-12.23-2.67-2.7-7.06-2.62-10.59-2.62-7.75,0-15.51-.12-23.26-.2h-.95c.83.82,1.67,1.66,2.5,2.49.07-6.69.14-13.39.2-20.08l-2.5,2.5c6.31-.03,12.63-.08,18.94-.1,1.56,0,3.13.01,4.69,0,1.8-.01,3.7-.26,5.45-.67,1.93-.45,3.46-1.19,4.73-2.73,2.71-3.31,1.72-8.79-1.61-11.23s-8.16-2.42-12.15-2.46c-6.62-.06-13.24,0-19.86,0l2.5,2.5c.07-5.36.14-10.72.21-16.09.04-3.22-4.96-3.22-5,0Z"/>
    <g>
      <path class="cls-1" d="M627.8,1106.54c.06,1.05-.13,1.52-1.06,2.03-1.09.6-2.28.95-3.51.69-2.12-.43-3.57-3.12-4.59-4.81-.92-1.53-1.68-3.18-2.51-4.76-2.62-4.98-5.24-9.95-7.85-14.93-.75-1.43-1.5-2.86-2.25-4.29-.4-.76-1.31-1.24-2.16-1.24-2.74.02-5.43.35-8.18.27-1.68-.05-3.36.03-5.04.03-1.35,0-2.5,1.15-2.5,2.5v12.91c0,1.83,0,3.66,0,5.48,0,1.45-.06,2.92-.14,4.36-.11,1.87-.82,3.83-2.85,4.33-.98.24-2.04.12-2.99-.19s-1.23-.61-1.54-1.52-.67-1.87-.68-2.85c-.01-.84,0-1.68,0-2.51v-54.84c0-.23,0-.45,0-.68,0-.44,0-.88.05-1.32.09-.96.3-2.37.89-3.16.95-1.26,3.19-.97,4.62-.94,2.8.06,5.6.09,8.4.09,5.39,0,10.88.02,16.21.99,4.76.87,9.38,2.78,12.44,6.65,5.45,6.91,6.53,19.33-.79,25.4-1.51,1.25-3.39,2.09-5.12,2.73-1.58.58-2.26,2.14-1.49,3.67,3.12,6.28,6.13,12.62,9.37,18.84.31.59.65,1.16.97,1.74.49.89.98,1.78,1.42,2.69.52,1.08.74,2.12,1,3.29.7,3.14,5.52,1.81,4.82-1.33-.24-1.06-.38-2.15-.86-3.13s-.92-1.98-1.44-2.93-1.05-1.81-1.53-2.73-.93-1.87-1.39-2.8c-2.1-4.23-4.2-8.46-6.31-12.68l-1.73-3.48-1.49,3.67c4.61-1.69,8.76-4.32,11.18-8.79,2.79-5.15,3.34-11.15,2.11-16.83-1.12-5.19-3.84-10.42-8.06-13.76-4.7-3.73-10.69-5.03-16.52-5.68s-11.86-.48-17.79-.56c-2.6-.03-5.49-.45-8.03.3-1.2.35-2.31.96-3.24,1.8-1.06.95-1.53,2.29-2.02,3.6-1.09,2.9-.66,6.82-.66,9.9v48.93c0,1.18,0,2.36,0,3.55.01,2.68.87,6.25,2.99,8.05s5.57,2.28,8.21,1.73,4.93-2.57,6.04-5.1c1.26-2.86.98-6.41.98-9.5v-17.39l-2.5,2.5c1.68,0,3.36-.08,5.04-.03,2.75.08,5.44-.25,8.18-.27l-2.16-1.24c2.24,4.26,4.48,8.52,6.73,12.79l3.87,7.35c1.43,2.72,2.74,5.54,4.85,7.81,1.17,1.26,2.57,2.49,4.24,3.01s3.36.46,5.07.06c3.62-.84,6.57-3.57,6.34-7.47-.19-3.2-5.19-3.22-5,0Z"/>
      <path class="cls-1" d="M604.68,1072.56c4.52-.09,9.07-2.61,11.27-6.64,1.9-3.48,1.67-8.57-.65-11.82s-6.62-4.81-10.61-5.14c-4.66-.39-9.37-.26-14.04-.26-1.33,0-2.53,1.15-2.5,2.5.15,6.28,0,12.57,0,18.85,0,1.35,1.15,2.5,2.5,2.5h14.04c3.22,0,3.22-5,0-5h-14.04l2.5,2.5c0-6.28.15-12.57,0-18.85l-2.5,2.5c3.86,0,7.73-.08,11.59.11,2.81.14,5.79.33,8.07,2.18,1.85,1.5,2.44,4.7,1.53,6.96-1.1,2.76-4.29,4.55-7.16,4.61-3.21.06-3.22,5.06,0,5Z"/>
    </g>
    <path class="cls-1" d="M382.48,1165.8c.64.91.85,1.68.73,2.79-.11,1-.49,1.36-1.46,1.79-.91.4-2.25.49-3.23.58-.73.06-1.49,0-2.23,0-1.61,0-3.21,0-4.82,0l-15.44.07c-1.74,0-3.48.02-5.22.03-1.35,0-2.5,1.14-2.5,2.5,0,5.67-.07,11.34-.1,17.01,0,1.35,1.15,2.5,2.5,2.5,6.73,0,13.44-.11,20.17,0,1.71.03,3.46.02,5.16.24,1.27.16,2.84.43,3.66,1.39s1.04,2.02.67,3.2-1.94,1.43-3.16,1.68c-2.69.55-5.61.26-8.34.28-3.14.02-6.29.03-9.43.05-2.98.02-5.95.03-8.93.05-1.36,0-2.48,1.14-2.5,2.5-.07,5.31-.14,10.62-.21,15.93-.03,2.48-.07,4.96-.1,7.44-.01.92.06,1.86-.19,2.68s-.61,2.15-1.12,2.63c-.83.77-2.66.91-3.7.76-1.16-.17-1.87-.55-2.27-1.52-.35-.83-.74-1.54-.84-2.44-.19-1.71-.21-3.36-.2-5.08.02-2.63.08-5.26.1-7.89.05-4.91.01-9.82.1-14.73.13-7.09-.11-14.18.07-21.26.08-3,.03-6.18.45-9.16.21-1.46.37-3.23,1.32-4.45.75-.95,2.41-1.22,3.29-1.08,1.58.25,3.16-.65,3.16-2.41v-.1l-2.5,2.5c6.51,0,13.02-.16,19.54-.15,3.07,0,6.13.03,9.19.14,1.63.06,3.33-.06,4.93.29,1.39.3,2.89.63,3.82,1.77.85,1.05,2.65.89,3.54,0,1.04-1.04.86-2.48,0-3.54-2.28-2.8-6.56-3.29-9.92-3.46s-6.73-.18-10.09-.19c-7-.02-14,.15-21.01.15-1.35,0-2.5,1.15-2.5,2.5v.1l3.16-2.41c-3.47-.56-7.3.49-9.14,3.7-1.72,3.02-1.91,6.69-2.02,10.08-.21,6.62-.2,13.21-.2,19.84,0,7.15-.15,14.3-.2,21.45-.02,2.56-.06,5.12-.1,7.68-.02,1.44-.16,2.93.04,4.35s.18,2.85.68,4.19c.2.52.5.98.71,1.5-.33-.79.04.22.08.32.2.46.41.88.7,1.29,2.21,3.09,6.62,3.59,10.03,2.59s5.08-3.76,5.84-7.12c.48-2.14.25-4.67.28-6.86.09-6.67.17-13.34.26-20.01l-2.5,2.5c6.2-.03,12.39-.08,18.59-.1,3.97-.02,7.97.22,11.79-1.1s5.56-5.76,4.29-9.45c-1.41-4.1-5.16-5.52-9.14-5.99s-8.43-.32-12.57-.34-8.51.1-12.76.1l2.5,2.5c.03-5.67.1-11.34.1-17.01l-2.5,2.5c8.99-.04,17.99-.02,26.98-.1,1.52-.01,3.34-.21,4.83-.58,1.58-.4,3.19-1.42,4.21-2.68,2.07-2.57,1.78-6.8-.05-9.41-.77-1.11-2.19-1.62-3.42-.9-1.09.64-1.67,2.31-.9,3.42Z"/>
    <path class="cls-1" d="M511.13,1217.46c.87,2.07.63,3.69-.55,5.58-1.11,1.76-2.72,3.21-4.41,4.4-3.68,2.59-7.98,4.49-12.49,4.91-9.05.84-19.38-2.1-25.54-9.08-2.94-3.33-4.48-7.83-5.37-12.12-1.01-4.87-1.09-9.83-.91-14.78.35-9.35,3.49-18.39,10.04-25.25,2.97-3.11,6.74-5.73,10.93-6.84,4.53-1.2,9.51-1.08,14.01.16,4.06,1.12,7.51,3.24,10.06,6.63,1.39,1.85,2.68,3.97,3.14,6.27.18.89.18,1.91-.18,2.76-.13.3-.41.59-.94.87-1.6.85-3.17.9-4.54-.34-1.71-1.56-2.9-3.53-4.73-4.97-3.87-3.04-9.21-3.99-13.92-2.56-4.32,1.32-8.1,4.41-10.13,8.45-2.24,4.46-3.48,9.42-3.99,14.37-.95,9.09.94,20.31,9.61,25.22,4.37,2.47,9.71,3.11,14.5,1.56,2.44-.79,4.47-2.01,6.47-3.59,1.57-1.25,3.3-2.96,5.4-3.18,1.71-.18,3.03.67,3.8,2.12,1.51,2.84,5.83.32,4.32-2.52-2.51-4.71-8.51-5.79-12.92-3.06-2.08,1.28-3.77,3.15-5.91,4.33s-4.67,1.84-7.19,1.75c-4.72-.17-8.66-2.88-10.89-6.95-2.33-4.25-2.65-9.52-2.32-14.26s1.51-10.28,4.11-14.45c2.31-3.71,6.87-6.02,11.23-5.32,2.25.36,4.21,1.35,5.8,2.97,1.74,1.77,3.02,3.93,5.26,5.16,4.04,2.21,10.29.28,11.8-4.25,1.73-5.22-1.58-10.72-4.8-14.59s-7.33-6.05-11.93-7.28c-5.17-1.38-10.84-1.49-16.04-.22-4.76,1.17-9.16,3.96-12.66,7.34-7.48,7.2-11.71,17.43-12.3,27.71-.31,5.42-.25,10.84.65,16.21.82,4.88,2.4,10.02,5.33,14.07,6.09,8.42,17.18,12.72,27.34,12.8,5.34.04,10.33-1.2,15.06-3.68,4.23-2.22,8.5-5.49,10.49-9.96,1.11-2.5,1.21-5.17.15-7.72-.52-1.25-1.66-2.14-3.08-1.75-1.18.32-2.27,1.82-1.75,3.08Z"/>
    <path class="cls-1" d="M533.99,1173.76c-.07,5.36-.14,10.72-.21,16.09-.02,1.35,1.16,2.5,2.5,2.5,5.24,0,10.48-.15,15.73-.07,1.54.03,3.08.05,4.62.07,1.81.03,3.66-.02,5.43.36,1.32.29,3.16.53,3.97,1.77.56.85.57,2.61-.03,3.43-.82,1.11-2.71,1.1-4.18,1.35-.95.16-1.9.17-2.86.17-1.34,0-2.68,0-4.03,0-3.04,0-6.08.03-9.12.05-3.24.02-6.49.03-9.73.05-1.36,0-2.49,1.14-2.5,2.5-.07,6.69-.14,13.39-.2,20.08-.01,1.36,1.16,2.49,2.5,2.5,6.76.07,13.53.16,20.29.2,1.53,0,3.07,0,4.6,0s2.86.11,4.33.32,2.67.92,2.68,2.53c0,1.76-.69,2.71-2.32,3.28-2.13.75-4.21.83-6.45.86-4.18.06-8.36.22-12.54.2s-8.44-.2-12.66-.2c-1.81,0-3.79.24-5.58.02-1.5-.19-2.46-1.55-2.86-2.89-.21-.68-.19-1.44-.29-2.15-.04-.28-.07-.56-.11-.84-.08-.56,0,.34,0,.04,0-.28,0-.55,0-.83,0-.9.1-1.79.1-2.68.01-2.1,0-4.2,0-6.3,0-5.85.21-11.69.21-17.53,0-3.98,0-7.97,0-11.95,0-3.42.04-6.83.13-10.25.04-1.75.12-3.48.22-5.22.12-2.03.11-3.7,1.16-5.51.38-.66.72-.93,1.42-1.24.32-.14.68-.26,1.03-.3.25-.03.54-.02.79,0,.06,0,.58.08.18,0,1.57.3,3.16-.69,3.16-2.41v-.1l-2.5,2.5c7.62,0,15.24-.29,22.86-.17,1.73.03,3.44.1,5.17.16,2.05.07,4.06,0,6.04.58,1.42.42,2.92.79,3.09,2.49.13,1.32-.04,2.31-1.24,2.93-1.33.7-3.3.69-4.79.69h-2.21c-1.07,0-2.15,0-3.22,0-3.44.02-6.88.03-10.32.05-3.25.02-6.5.03-9.75.05-1.35,0-2.5,1.14-2.5,2.5v.31c0,3.22,5,3.22,5,0v-.31l-2.5,2.5c6.75-.03,13.5-.08,20.25-.1,4.43-.02,9.6.6,13.46-1.91,3.56-2.31,3.87-8.86.76-11.66-3.43-3.09-8.25-2.92-12.55-3.15-9.17-.48-18.38.04-27.56.04-1.35,0-2.5,1.15-2.5,2.5v.1l3.16-2.41c-2.3-.44-4.66-.02-6.65,1.24s-3.16,3.56-3.78,5.75-.55,4.59-.63,6.79c-.07,1.98-.1,3.96-.14,5.93-.1,5.23-.07,10.46-.07,15.69,0,6.74-.17,13.47-.21,20.21-.02,4.36-.33,8.86.18,13.18.25,2.13.82,3.88,2.11,5.62,1.42,1.91,3.59,2.93,5.95,3.07,2.08.12,4.2-.04,6.29-.02s4.37.09,6.55.13c5.05.1,10.08.02,15.13-.03,4.21-.05,9.34.21,13-2.24,3.93-2.63,4.81-8.79,1.41-12.23-2.67-2.7-7.06-2.62-10.59-2.62-7.75,0-15.51-.12-23.26-.2h-.95c.83.82,1.67,1.66,2.5,2.49.07-6.69.14-13.39.2-20.08l-2.5,2.5c6.31-.03,12.63-.08,18.94-.1,1.56,0,3.13.01,4.69,0,1.8-.01,3.7-.26,5.45-.67,1.93-.45,3.46-1.19,4.73-2.73,2.71-3.31,1.72-8.79-1.61-11.23s-8.16-2.42-12.15-2.46c-6.62-.06-13.24,0-19.86,0l2.5,2.5c.07-5.36.14-10.72.21-16.09.04-3.22-4.96-3.22-5,0Z"/>
  </g>
  <path class="cls-1" d="M446.58,1216.5c-2.05,2.38-4.45,4.62-7.43,5.75-1.21.46-2.32.71-3.41.78-.54.03-1.08.04-1.62,0-.26-.01-.52-.03-.78-.06-.44-.05.11.04-.45-.07-.95-.2-1.86-.45-2.78-.78-.07-.02-.73-.3-.18-.06-.18-.08-.36-.16-.54-.25-.35-.17-.7-.35-1.04-.54-.51-.28-1-.59-1.48-.92-.1-.07-.4-.21-.44-.32.09.26.56.44.23.17-2.5-2.09-5.54,1.03-3.54,3.54,3.45,4.33,6.9,8.65,10.35,12.98l1.77-4.27h-15.25c-1.35,0-2.5,1.15-2.5,2.5v.06l2.5-2.5h-15.25l1.77,4.27c3.45-4.33,6.9-8.65,10.35-12.98,2-2.51-1.03-5.62-3.54-3.54-.47.39.64-.44-.04.03-.4.28-.8.55-1.22.8-.53.32-1.08.6-1.64.86-.08.04-.7.29-.15.07-.13.05-.26.11-.39.15-.49.17-.99.35-1.49.48-1.53.42-3.32.59-4.88.35-2.36-.37-4.54-1.41-6.42-2.86-1.16-.89-2.21-1.95-3.19-3.04-.2-.22-.39-.45-.58-.67.46.55.11.16.02.02-.16-.26-.33-.5-.48-.77-.12-.22-.23-.45-.33-.68.34.73-.06-.2-.12-.4-.08-.25-.14-.5-.2-.75-.05-.2-.19-1.23-.1-.43-.13-1.26-.11-2.5.02-3.77.07-.63-.09.57.01-.07.03-.19.06-.37.09-.56.06-.32.12-.63.19-.95.16-.72.34-1.43.55-2.14.22-.75.47-1.49.73-2.22.13-.34.25-.69.39-1.03.08-.21.17-.42.25-.62.06-.14.11-.28.17-.42-.09.21-.1.24-.03.07.7-1.64,1.48-3.24,2.31-4.81,1.73-3.29,3.67-6.47,5.72-9.56s4.2-6.11,6.44-9.07c1.12-1.48,1.69-2.22,2.91-3.76.97-1.22,1.94-2.43,2.93-3.63,1.69-2.05,3.4-4.07,5.16-6.05.91-1.04,2.55-2.38,2.55-3.85l-4.27,1.77c1.29,1.39,2.53,2.83,3.77,4.27,1.35,1.57,2.67,3.15,3.98,4.75.77.95,1.54,1.9,2.3,2.86.4.51.8,1.02,1.2,1.53.1.12.19.25.29.37.25.32-.2-.27.04.05.22.28.44.57.65.85,3.48,4.57,6.8,9.27,9.77,14.17,1.46,2.4,2.83,4.86,4.06,7.39.29.6.57,1.2.85,1.81.13.28.25.56.37.84.16.37-.14-.33.01.03.07.17.14.35.21.52.46,1.14.87,2.29,1.23,3.46.37,1.24.65,2.48.88,3.75.1.55-.02-.34.05.34.03.3.06.59.08.89.03.54.04,1.09.02,1.63-.01.25-.04.49-.05.74-.05.71.12-.4-.05.29-.11.48-.21.96-.37,1.43-.09.27-.31.72-.05.18-.11.23-.21.46-.33.68s-.26.43-.39.64c-.05.09-.12.17-.17.25-.27.39.34-.42.01-.03-.86,1.04-1.02,2.52,0,3.54.89.89,2.67,1.04,3.54,0,3.05-3.67,3.28-8.34,2.38-12.85-1.05-5.3-3.53-10.34-6.16-15.01-5.48-9.77-12.41-18.76-19.64-27.29-1.61-1.91-3.25-3.81-4.94-5.65-1.49-1.62-4.27-.34-4.27,1.77v.06l.73-1.77c-7.26,7.87-13.98,16.42-19.9,25.33-4.14,6.24-8.14,12.95-10.24,20.2-.82,2.82-1.33,5.84-.97,8.77.49,3.97,2.67,6.86,5.66,9.46,4.54,3.94,10.29,5.95,16.26,4.6,2.84-.64,5.6-1.99,7.83-3.86l-3.54-3.54c-3.45,4.33-6.9,8.65-10.35,12.98-1.29,1.62-.57,4.27,1.77,4.27h15.25c1.35,0,2.5-1.15,2.5-2.5v-.06l-2.5,2.5h15.25c2.35,0,3.06-2.65,1.77-4.27-3.45-4.33-6.9-8.65-10.35-12.98l-3.54,3.54c2.52,2.1,5.68,3.56,8.92,4.06,7.17,1.12,13.48-2.43,18.07-7.77.88-1.02,1-2.53,0-3.54-.9-.9-2.65-1.03-3.54,0Z"/>
</svg>